<?xml version="1.0" encoding="UTF-8" standalone="no"?>
<!DOCTYPE svg PUBLIC "-//W3C//DTD SVG 1.1//EN"
 "http://www.w3.org/Graphics/SVG/1.1/DTD/svg11.dtd">
<!-- Generated by graphviz version 2.44.0 (20200408.0750)
 -->
<!-- Title: dependency&#45;cruiser output Pages: 1 -->
<svg width="395pt" height="173pt"
 viewBox="0.00 0.00 395.49 173.00" xmlns="http://www.w3.org/2000/svg" xmlns:xlink="http://www.w3.org/1999/xlink">
<g id="graph0" class="graph" transform="scale(1 1) rotate(0) translate(4 169)">
<title>dependency&#45;cruiser output</title>
<polygon fill="white" stroke="transparent" points="-4,4 -4,-169 391.49,-169 391.49,4 -4,4"/>
<g id="clust1" class="cluster">
<title>cluster_client</title>
<path fill="#ffffff" stroke="black" stroke-width="2" d="M20,-8C20,-8 367.49,-8 367.49,-8 373.49,-8 379.49,-14 379.49,-20 379.49,-20 379.49,-145 379.49,-145 379.49,-151 373.49,-157 367.49,-157 367.49,-157 20,-157 20,-157 14,-157 8,-151 8,-145 8,-145 8,-20 8,-20 8,-14 14,-8 20,-8"/>
<text text-anchor="middle" x="193.74" y="-144.9" font-family="Helvetica,sans-Serif" font-weight="bold" font-size="9.00">client</text>
</g>
<g id="clust2" class="cluster">
<title>cluster_client/src</title>
<path fill="#ffffff" stroke="black" stroke-width="2" d="M28,-16C28,-16 359.49,-16 359.49,-16 365.49,-16 371.49,-22 371.49,-28 371.49,-28 371.49,-92 371.49,-92 371.49,-98 365.49,-104 359.49,-104 359.49,-104 28,-104 28,-104 22,-104 16,-98 16,-92 16,-92 16,-28 16,-28 16,-22 22,-16 28,-16"/>
<text text-anchor="middle" x="193.74" y="-91.9" font-family="Helvetica,sans-Serif" font-weight="bold" font-size="9.00">src</text>
</g>
<g id="clust3" class="cluster">
<title>cluster_client/src/handlers</title>
<path fill="#ffffff" stroke="black" stroke-width="2" d="M207,-24C207,-24 268,-24 268,-24 274,-24 280,-30 280,-36 280,-36 280,-65 280,-65 280,-71 274,-77 268,-77 268,-77 207,-77 207,-77 201,-77 195,-71 195,-65 195,-65 195,-36 195,-36 195,-30 201,-24 207,-24"/>
<text text-anchor="middle" x="237.5" y="-64.9" font-family="Helvetica,sans-Serif" font-weight="bold" font-size="9.00">handlers</text>
</g>
<g id="clust4" class="cluster">
<title>cluster_client/src/init</title>
<path fill="#ffffff" stroke="black" stroke-width="2" d="M36,-24C36,-24 82,-24 82,-24 88,-24 94,-30 94,-36 94,-36 94,-65 94,-65 94,-71 88,-77 82,-77 82,-77 36,-77 36,-77 30,-77 24,-71 24,-65 24,-65 24,-36 24,-36 24,-30 30,-24 36,-24"/>
<text text-anchor="middle" x="59" y="-64.9" font-family="Helvetica,sans-Serif" font-weight="bold" font-size="9.00">init</text>
</g>
<g id="clust5" class="cluster">
<title>cluster_client/src/listeners</title>
<path fill="#ffffff" stroke="black" stroke-width="2" d="M114,-24C114,-24 175,-24 175,-24 181,-24 187,-30 187,-36 187,-36 187,-65 187,-65 187,-71 181,-77 175,-77 175,-77 114,-77 114,-77 108,-77 102,-71 102,-65 102,-65 102,-36 102,-36 102,-30 108,-24 114,-24"/>
<text text-anchor="middle" x="144.5" y="-64.9" font-family="Helvetica,sans-Serif" font-weight="bold" font-size="9.00">listeners</text>
</g>
<g id="clust6" class="cluster">
<title>cluster_client/src/logic</title>
<path fill="#ffffff" stroke="black" stroke-width="2" d="M300,-24C300,-24 351.49,-24 351.49,-24 357.49,-24 363.49,-30 363.49,-36 363.49,-36 363.49,-65 363.49,-65 363.49,-71 357.49,-77 351.49,-77 351.49,-77 300,-77 300,-77 294,-77 288,-71 288,-65 288,-65 288,-36 288,-36 288,-30 294,-24 300,-24"/>
<text text-anchor="middle" x="325.74" y="-64.9" font-family="Helvetica,sans-Serif" font-weight="bold" font-size="9.00">logic</text>
</g>
<!-- client/data.js -->
<g id="node1" class="node">
<title>client/data.js</title>
<g id="a_node1"><a xlink:href="../client/data.js" xlink:title="data.js">
<path fill="#ffffcc" stroke="black" d="M346.54,-130.3C346.54,-130.3 304.94,-130.3 304.94,-130.3 301.84,-130.3 298.74,-127.2 298.74,-124.1 298.74,-124.1 298.74,-117.9 298.74,-117.9 298.74,-114.8 301.84,-111.7 304.94,-111.7 304.94,-111.7 346.54,-111.7 346.54,-111.7 349.64,-111.7 352.74,-114.8 352.74,-117.9 352.74,-117.9 352.74,-124.1 352.74,-124.1 352.74,-127.2 349.64,-130.3 346.54,-130.3"/>
<text text-anchor="middle" x="325.74" y="-118.3" font-family="Helvetica,sans-Serif" font-size="9.00">data.js</text>
</a>
</g>
</g>
<!-- client/src/handlers/input&#45;items.js -->
<g id="node2" class="node">
<title>client/src/handlers/input&#45;items.js</title>
<g id="a_node2"><a xlink:href="../client/src/handlers/input-items.js" xlink:title="input&#45;items.js">
<path fill="#ffffcc" stroke="black" d="M265.8,-50.3C265.8,-50.3 209.2,-50.3 209.2,-50.3 206.1,-50.3 203,-47.2 203,-44.1 203,-44.1 203,-37.9 203,-37.9 203,-34.8 206.1,-31.7 209.2,-31.7 209.2,-31.7 265.8,-31.7 265.8,-31.7 268.9,-31.7 272,-34.8 272,-37.9 272,-37.9 272,-44.1 272,-44.1 272,-47.2 268.9,-50.3 265.8,-50.3"/>
<text text-anchor="middle" x="237.5" y="-38.3" font-family="Helvetica,sans-Serif" font-size="9.00">input&#45;items.js</text>
</a>
</g>
</g>
<!-- client/src/handlers/input&#45;items.js&#45;&gt;client/data.js -->
<g id="edge1" class="edge">
<title>client/src/handlers/input&#45;items.js&#45;&gt;client/data.js</title>
<path fill="none" stroke="#000000" stroke-width="2" stroke-opacity="0.200000" d="M248.73,-50.49C263.9,-64.56 292.45,-91.04 309.91,-107.24"/>
<polygon fill="#000000" fill-opacity="0.200000" stroke="#000000" stroke-width="2" stroke-opacity="0.200000" points="308.7,-108.98 314.52,-111.52 311.55,-105.9 308.7,-108.98"/>
</g>
<!-- client/src/logic/array&#45;list.js -->
<g id="node3" class="node">
<title>client/src/logic/array&#45;list.js</title>
<g id="a_node3"><a xlink:href="../client/src/logic/array-list.js" xlink:title="array&#45;list.js">
<path fill="#ffffcc" stroke="black" d="M349.53,-50.3C349.53,-50.3 301.95,-50.3 301.95,-50.3 298.85,-50.3 295.75,-47.2 295.75,-44.1 295.75,-44.1 295.75,-37.9 295.75,-37.9 295.75,-34.8 298.85,-31.7 301.95,-31.7 301.95,-31.7 349.53,-31.7 349.53,-31.7 352.63,-31.7 355.73,-34.8 355.73,-37.9 355.73,-37.9 355.73,-44.1 355.73,-44.1 355.73,-47.2 352.63,-50.3 349.53,-50.3"/>
<text text-anchor="middle" x="325.74" y="-38.3" font-family="Helvetica,sans-Serif" font-size="9.00">array&#45;list.js</text>
</a>
</g>
</g>
<!-- client/src/handlers/input&#45;items.js&#45;&gt;client/src/logic/array&#45;list.js -->
<g id="edge2" class="edge">
<title>client/src/handlers/input&#45;items.js&#45;&gt;client/src/logic/array&#45;list.js</title>
<path fill="none" stroke="#000000" stroke-width="2" stroke-opacity="0.200000" d="M272.09,-41C277.86,-41 283.86,-41 289.66,-41"/>
<polygon fill="#000000" fill-opacity="0.200000" stroke="#000000" stroke-width="2" stroke-opacity="0.200000" points="289.86,-43.1 295.86,-41 289.86,-38.9 289.86,-43.1"/>
</g>
<!-- client/src/init/index.js -->
<g id="node4" class="node">
<title>client/src/init/index.js</title>
<g id="a_node4"><a xlink:href="../client/src/init/index.js" xlink:title="index.js">
<path fill="#ffffcc" stroke="black" d="M79.8,-50.3C79.8,-50.3 38.2,-50.3 38.2,-50.3 35.1,-50.3 32,-47.2 32,-44.1 32,-44.1 32,-37.9 32,-37.9 32,-34.8 35.1,-31.7 38.2,-31.7 38.2,-31.7 79.8,-31.7 79.8,-31.7 82.9,-31.7 86,-34.8 86,-37.9 86,-37.9 86,-44.1 86,-44.1 86,-47.2 82.9,-50.3 79.8,-50.3"/>
<text text-anchor="middle" x="59" y="-38.3" font-family="Helvetica,sans-Serif" font-size="9.00">index.js</text>
</a>
</g>
</g>
<!-- client/src/listeners/input&#45;items.js -->
<g id="node5" class="node">
<title>client/src/listeners/input&#45;items.js</title>
<g id="a_node5"><a xlink:href="../client/src/listeners/input-items.js" xlink:title="input&#45;items.js">
<path fill="#ffffcc" stroke="black" d="M172.8,-50.3C172.8,-50.3 116.2,-50.3 116.2,-50.3 113.1,-50.3 110,-47.2 110,-44.1 110,-44.1 110,-37.9 110,-37.9 110,-34.8 113.1,-31.7 116.2,-31.7 116.2,-31.7 172.8,-31.7 172.8,-31.7 175.9,-31.7 179,-34.8 179,-37.9 179,-37.9 179,-44.1 179,-44.1 179,-47.2 175.9,-50.3 172.8,-50.3"/>
<text text-anchor="middle" x="144.5" y="-38.3" font-family="Helvetica,sans-Serif" font-size="9.00">input&#45;items.js</text>
</a>
</g>
</g>
<!-- client/src/init/index.js&#45;&gt;client/src/listeners/input&#45;items.js -->
<g id="edge3" class="edge">
<title>client/src/init/index.js&#45;&gt;client/src/listeners/input&#45;items.js</title>
<path fill="none" stroke="#000000" stroke-width="2" stroke-opacity="0.200000" d="M86.42,-41C91.89,-41 97.78,-41 103.61,-41"/>
<polygon fill="#000000" fill-opacity="0.200000" stroke="#000000" stroke-width="2" stroke-opacity="0.200000" points="103.9,-43.1 109.9,-41 103.9,-38.9 103.9,-43.1"/>
</g>
<!-- client/src/listeners/input&#45;items.js&#45;&gt;client/src/handlers/input&#45;items.js -->
<g id="edge4" class="edge">
<title>client/src/listeners/input&#45;items.js&#45;&gt;client/src/handlers/input&#45;items.js</title>
<path fill="none" stroke="#000000" stroke-width="2" stroke-opacity="0.200000" d="M179.13,-41C184.78,-41 190.69,-41 196.49,-41"/>
<polygon fill="#000000" fill-opacity="0.200000" stroke="#000000" stroke-width="2" stroke-opacity="0.200000" points="196.71,-43.1 202.71,-41 196.71,-38.9 196.71,-43.1"/>
</g>
</g>
</svg>
