<?xml version="1.0" encoding="UTF-8" standalone="no"?>
<!DOCTYPE svg PUBLIC "-//W3C//DTD SVG 1.1//EN"
 "http://www.w3.org/Graphics/SVG/1.1/DTD/svg11.dtd">
<!-- Generated by graphviz version 2.44.0 (20200408.0750)
 -->
<!-- Title: dependency&#45;cruiser output Pages: 1 -->
<svg width="453pt" height="327pt"
 viewBox="0.00 0.00 452.50 327.00" xmlns="http://www.w3.org/2000/svg" xmlns:xlink="http://www.w3.org/1999/xlink">
<g id="graph0" class="graph" transform="scale(1 1) rotate(0) translate(4 323)">
<title>dependency&#45;cruiser output</title>
<polygon fill="white" stroke="transparent" points="-4,4 -4,-323 448.5,-323 448.5,4 -4,4"/>
<g id="clust1" class="cluster">
<title>cluster_client</title>
<path fill="#ffffff" stroke="black" stroke-width="2" d="M20,-8C20,-8 424.5,-8 424.5,-8 430.5,-8 436.5,-14 436.5,-20 436.5,-20 436.5,-299 436.5,-299 436.5,-305 430.5,-311 424.5,-311 424.5,-311 20,-311 20,-311 14,-311 8,-305 8,-299 8,-299 8,-20 8,-20 8,-14 14,-8 20,-8"/>
<text text-anchor="middle" x="222.25" y="-298.9" font-family="Helvetica,sans-Serif" font-weight="bold" font-size="9.00">client</text>
</g>
<g id="clust2" class="cluster">
<title>cluster_client/src</title>
<path fill="#ffffff" stroke="black" stroke-width="2" d="M28,-16C28,-16 416.5,-16 416.5,-16 422.5,-16 428.5,-22 428.5,-28 428.5,-28 428.5,-246 428.5,-246 428.5,-252 422.5,-258 416.5,-258 416.5,-258 28,-258 28,-258 22,-258 16,-252 16,-246 16,-246 16,-28 16,-28 16,-22 22,-16 28,-16"/>
<text text-anchor="middle" x="222.25" y="-245.9" font-family="Helvetica,sans-Serif" font-weight="bold" font-size="9.00">src</text>
</g>
<g id="clust3" class="cluster">
<title>cluster_client/src/components</title>
<path fill="#ffffff" stroke="black" stroke-width="2" d="M335.75,-24C335.75,-24 401.25,-24 401.25,-24 407.25,-24 413.25,-30 413.25,-36 413.25,-36 413.25,-65 413.25,-65 413.25,-71 407.25,-77 401.25,-77 401.25,-77 335.75,-77 335.75,-77 329.75,-77 323.75,-71 323.75,-65 323.75,-65 323.75,-36 323.75,-36 323.75,-30 329.75,-24 335.75,-24"/>
<text text-anchor="middle" x="368.5" y="-64.9" font-family="Helvetica,sans-Serif" font-weight="bold" font-size="9.00">components</text>
</g>
<g id="clust4" class="cluster">
<title>cluster_client/src/handlers</title>
<path fill="#ffffff" stroke="black" stroke-width="2" d="M229.49,-85C229.49,-85 408.5,-85 408.5,-85 414.5,-85 420.5,-91 420.5,-97 420.5,-97 420.5,-219 420.5,-219 420.5,-225 414.5,-231 408.5,-231 408.5,-231 229.49,-231 229.49,-231 223.49,-231 217.49,-225 217.49,-219 217.49,-219 217.49,-97 217.49,-97 217.49,-91 223.49,-85 229.49,-85"/>
<text text-anchor="middle" x="319" y="-218.9" font-family="Helvetica,sans-Serif" font-weight="bold" font-size="9.00">handlers</text>
</g>
<g id="clust5" class="cluster">
<title>cluster_client/src/init</title>
<path fill="#ffffff" stroke="black" stroke-width="2" d="M38.74,-131C38.74,-131 84.74,-131 84.74,-131 90.74,-131 96.74,-137 96.74,-143 96.74,-143 96.74,-172 96.74,-172 96.74,-178 90.74,-184 84.74,-184 84.74,-184 38.74,-184 38.74,-184 32.74,-184 26.74,-178 26.74,-172 26.74,-172 26.74,-143 26.74,-143 26.74,-137 32.74,-131 38.74,-131"/>
<text text-anchor="middle" x="61.74" y="-171.9" font-family="Helvetica,sans-Serif" font-weight="bold" font-size="9.00">init</text>
</g>
<g id="clust6" class="cluster">
<title>cluster_client/src/listeners</title>
<path fill="#ffffff" stroke="black" stroke-width="2" d="M119.49,-85C119.49,-85 197.49,-85 197.49,-85 203.49,-85 209.49,-91 209.49,-97 209.49,-97 209.49,-219 209.49,-219 209.49,-225 203.49,-231 197.49,-231 197.49,-231 119.49,-231 119.49,-231 113.49,-231 107.49,-225 107.49,-219 107.49,-219 107.49,-97 107.49,-97 107.49,-91 113.49,-85 119.49,-85"/>
<text text-anchor="middle" x="158.49" y="-218.9" font-family="Helvetica,sans-Serif" font-weight="bold" font-size="9.00">listeners</text>
</g>
<g id="clust7" class="cluster">
<title>cluster_client/src/logic</title>
<path fill="#ffffff" stroke="black" stroke-width="2" d="M36,-55C36,-55 87.49,-55 87.49,-55 93.49,-55 99.49,-61 99.49,-67 99.49,-67 99.49,-96 99.49,-96 99.49,-102 93.49,-108 87.49,-108 87.49,-108 36,-108 36,-108 30,-108 24,-102 24,-96 24,-96 24,-67 24,-67 24,-61 30,-55 36,-55"/>
<text text-anchor="middle" x="61.74" y="-95.9" font-family="Helvetica,sans-Serif" font-weight="bold" font-size="9.00">logic</text>
</g>
<!-- client/data.js -->
<g id="node1" class="node">
<title>client/data.js</title>
<g id="a_node1"><a xlink:href="../client/data.js" xlink:title="data.js">
<path fill="#ffffcc" stroke="black" d="M389.3,-284.3C389.3,-284.3 347.7,-284.3 347.7,-284.3 344.6,-284.3 341.5,-281.2 341.5,-278.1 341.5,-278.1 341.5,-271.9 341.5,-271.9 341.5,-268.8 344.6,-265.7 347.7,-265.7 347.7,-265.7 389.3,-265.7 389.3,-265.7 392.4,-265.7 395.5,-268.8 395.5,-271.9 395.5,-271.9 395.5,-278.1 395.5,-278.1 395.5,-281.2 392.4,-284.3 389.3,-284.3"/>
<text text-anchor="middle" x="368.5" y="-272.3" font-family="Helvetica,sans-Serif" font-size="9.00">data.js</text>
</a>
</g>
</g>
<!-- client/src/components/render&#45;table.js -->
<g id="node2" class="node">
<title>client/src/components/render&#45;table.js</title>
<g id="a_node2"><a xlink:href="../client/src/components/render-table.js" xlink:title="render&#45;table.js">
<path fill="#ffffcc" stroke="black" d="M398.81,-50.3C398.81,-50.3 338.19,-50.3 338.19,-50.3 335.09,-50.3 331.99,-47.2 331.99,-44.1 331.99,-44.1 331.99,-37.9 331.99,-37.9 331.99,-34.8 335.09,-31.7 338.19,-31.7 338.19,-31.7 398.81,-31.7 398.81,-31.7 401.91,-31.7 405.01,-34.8 405.01,-37.9 405.01,-37.9 405.01,-44.1 405.01,-44.1 405.01,-47.2 401.91,-50.3 398.81,-50.3"/>
<text text-anchor="middle" x="368.5" y="-38.3" font-family="Helvetica,sans-Serif" font-size="9.00">render&#45;table.js</text>
</a>
</g>
</g>
<!-- client/src/handlers/edit&#45;description.js -->
<g id="node3" class="node">
<title>client/src/handlers/edit&#45;description.js</title>
<g id="a_node3"><a xlink:href="../client/src/handlers/edit-description.js" xlink:title="edit&#45;description.js">
<path fill="#ffffcc" stroke="black" d="M305.3,-111.3C305.3,-111.3 231.69,-111.3 231.69,-111.3 228.59,-111.3 225.49,-108.2 225.49,-105.1 225.49,-105.1 225.49,-98.9 225.49,-98.9 225.49,-95.8 228.59,-92.7 231.69,-92.7 231.69,-92.7 305.3,-92.7 305.3,-92.7 308.4,-92.7 311.5,-95.8 311.5,-98.9 311.5,-98.9 311.5,-105.1 311.5,-105.1 311.5,-108.2 308.4,-111.3 305.3,-111.3"/>
<text text-anchor="middle" x="268.5" y="-99.3" font-family="Helvetica,sans-Serif" font-size="9.00">edit&#45;description.js</text>
</a>
</g>
</g>
<!-- client/src/handlers/edit&#45;description.js&#45;&gt;client/data.js -->
<g id="edge1" class="edge">
<title>client/src/handlers/edit&#45;description.js&#45;&gt;client/data.js</title>
<path fill="none" stroke="#000000" stroke-width="2" stroke-opacity="0.200000" d="M304.29,-111.4C307.03,-113.23 309.5,-115.4 311.5,-118 343.12,-159.08 300.66,-187.58 323.75,-234 329.22,-245.01 338.96,-254.59 347.86,-261.71"/>
<polygon fill="#000000" fill-opacity="0.200000" stroke="#000000" stroke-width="2" stroke-opacity="0.200000" points="346.65,-263.43 352.69,-265.41 349.21,-260.1 346.65,-263.43"/>
</g>
<!-- client/src/handlers/edit&#45;description.js&#45;&gt;client/src/components/render&#45;table.js -->
<g id="edge2" class="edge">
<title>client/src/handlers/edit&#45;description.js&#45;&gt;client/src/components/render&#45;table.js</title>
<path fill="none" stroke="#000000" stroke-width="2" stroke-opacity="0.200000" d="M284.81,-92.47C301.5,-82.08 328.28,-65.41 346.83,-53.87"/>
<polygon fill="#000000" fill-opacity="0.200000" stroke="#000000" stroke-width="2" stroke-opacity="0.200000" points="348.31,-55.42 352.3,-50.46 346.09,-51.85 348.31,-55.42"/>
</g>
<!-- client/src/handlers/new&#45;description.js -->
<g id="node4" class="node">
<title>client/src/handlers/new&#45;description.js</title>
<g id="a_node4"><a xlink:href="../client/src/handlers/new-description.js" xlink:title="new&#45;description.js">
<path fill="#ffffcc" stroke="black" d="M406.31,-111.3C406.31,-111.3 330.7,-111.3 330.7,-111.3 327.6,-111.3 324.5,-108.2 324.5,-105.1 324.5,-105.1 324.5,-98.9 324.5,-98.9 324.5,-95.8 327.6,-92.7 330.7,-92.7 330.7,-92.7 406.31,-92.7 406.31,-92.7 409.41,-92.7 412.51,-95.8 412.51,-98.9 412.51,-98.9 412.51,-105.1 412.51,-105.1 412.51,-108.2 409.41,-111.3 406.31,-111.3"/>
<text text-anchor="middle" x="368.5" y="-99.3" font-family="Helvetica,sans-Serif" font-size="9.00">new&#45;description.js</text>
</a>
</g>
</g>
<!-- client/src/handlers/edit&#45;description.js&#45;&gt;client/src/handlers/new&#45;description.js -->
<g id="edge3" class="edge">
<title>client/src/handlers/edit&#45;description.js&#45;&gt;client/src/handlers/new&#45;description.js</title>
<path fill="none" stroke="#000000" stroke-width="2" stroke-opacity="0.200000" d="M311.63,-97.54C311.76,-97.54 311.89,-97.54 312.03,-97.54"/>
<polygon fill="#000000" fill-opacity="0.200000" stroke="#000000" stroke-width="2" stroke-opacity="0.200000" points="318.47,-99.63 324.47,-97.53 318.47,-95.43 318.47,-99.63"/>
<polyline fill="none" stroke="#000000" stroke-width="2" stroke-opacity="0.200000" points="318.47,-97.53 315.47,-97.53 "/>
<ellipse fill="none" stroke="#000000" stroke-width="2" stroke-opacity="0.200000" cx="313.07" cy="-97.53" rx="2.4" ry="2.4"/>
</g>
<!-- client/src/handlers/new&#45;description.js&#45;&gt;client/src/handlers/edit&#45;description.js -->
<g id="edge6" class="edge">
<title>client/src/handlers/new&#45;description.js&#45;&gt;client/src/handlers/edit&#45;description.js</title>
<path fill="none" stroke="#000000" stroke-width="2" stroke-opacity="0.200000" d="M324.47,-106.47C324.34,-106.47 324.2,-106.47 324.07,-106.47"/>
<polygon fill="#000000" fill-opacity="0.200000" stroke="#000000" stroke-width="2" stroke-opacity="0.200000" points="317.63,-104.37 311.63,-106.46 317.63,-108.57 317.63,-104.37"/>
<polyline fill="none" stroke="#000000" stroke-width="2" stroke-opacity="0.200000" points="317.63,-106.47 320.63,-106.47 "/>
<ellipse fill="none" stroke="#000000" stroke-width="2" stroke-opacity="0.200000" cx="323.03" cy="-106.47" rx="2.4" ry="2.4"/>
</g>
<!-- client/src/handlers/help&#45;section.js -->
<g id="node5" class="node">
<title>client/src/handlers/help&#45;section.js</title>
<g id="a_node5"><a xlink:href="../client/src/handlers/help-section.js" xlink:title="help&#45;section.js">
<path fill="#ffffcc" stroke="black" d="M298.81,-204.3C298.81,-204.3 238.19,-204.3 238.19,-204.3 235.09,-204.3 231.99,-201.2 231.99,-198.1 231.99,-198.1 231.99,-191.9 231.99,-191.9 231.99,-188.8 235.09,-185.7 238.19,-185.7 238.19,-185.7 298.81,-185.7 298.81,-185.7 301.91,-185.7 305.01,-188.8 305.01,-191.9 305.01,-191.9 305.01,-198.1 305.01,-198.1 305.01,-201.2 301.91,-204.3 298.81,-204.3"/>
<text text-anchor="middle" x="268.5" y="-192.3" font-family="Helvetica,sans-Serif" font-size="9.00">help&#45;section.js</text>
</a>
</g>
</g>
<!-- client/src/handlers/input&#45;items.js -->
<g id="node6" class="node">
<title>client/src/handlers/input&#45;items.js</title>
<g id="a_node6"><a xlink:href="../client/src/handlers/input-items.js" xlink:title="input&#45;items.js">
<path fill="#ffffcc" stroke="black" d="M296.79,-142.3C296.79,-142.3 240.2,-142.3 240.2,-142.3 237.1,-142.3 234,-139.2 234,-136.1 234,-136.1 234,-129.9 234,-129.9 234,-126.8 237.1,-123.7 240.2,-123.7 240.2,-123.7 296.79,-123.7 296.79,-123.7 299.9,-123.7 303,-126.8 303,-129.9 303,-129.9 303,-136.1 303,-136.1 303,-139.2 299.9,-142.3 296.79,-142.3"/>
<text text-anchor="middle" x="268.5" y="-130.3" font-family="Helvetica,sans-Serif" font-size="9.00">input&#45;items.js</text>
</a>
</g>
</g>
<!-- client/src/handlers/input&#45;items.js&#45;&gt;client/data.js -->
<g id="edge4" class="edge">
<title>client/src/handlers/input&#45;items.js&#45;&gt;client/data.js</title>
<path fill="none" stroke="#000000" stroke-width="2" stroke-opacity="0.200000" d="M303.39,-141.98C306.46,-143.89 309.26,-146.2 311.5,-149 335.35,-178.8 306.11,-200.15 323.75,-234 329.51,-245.06 339.47,-254.75 348.42,-261.93"/>
<polygon fill="#000000" fill-opacity="0.200000" stroke="#000000" stroke-width="2" stroke-opacity="0.200000" points="347.23,-263.66 353.26,-265.65 349.79,-260.33 347.23,-263.66"/>
</g>
<!-- client/src/handlers/input&#45;items.js&#45;&gt;client/src/components/render&#45;table.js -->
<g id="edge5" class="edge">
<title>client/src/handlers/input&#45;items.js&#45;&gt;client/src/components/render&#45;table.js</title>
<path fill="none" stroke="#000000" stroke-width="2" stroke-opacity="0.200000" d="M302.86,-123.56C306.04,-121.74 309,-119.57 311.5,-117 322.99,-105.19 314.75,-95.81 323.75,-82 330.65,-71.4 340.86,-61.63 349.68,-54.28"/>
<polygon fill="#000000" fill-opacity="0.200000" stroke="#000000" stroke-width="2" stroke-opacity="0.200000" points="351.06,-55.87 354.4,-50.46 348.42,-52.6 351.06,-55.87"/>
</g>
<!-- client/src/handlers/remove&#45;item.js -->
<g id="node7" class="node">
<title>client/src/handlers/remove&#45;item.js</title>
<g id="a_node7"><a xlink:href="../client/src/handlers/remove-item.js" xlink:title="remove&#45;item.js">
<path fill="#ffffcc" stroke="black" d="M299.79,-173.3C299.79,-173.3 237.2,-173.3 237.2,-173.3 234.1,-173.3 231,-170.2 231,-167.1 231,-167.1 231,-160.9 231,-160.9 231,-157.8 234.1,-154.7 237.2,-154.7 237.2,-154.7 299.79,-154.7 299.79,-154.7 302.89,-154.7 305.99,-157.8 305.99,-160.9 305.99,-160.9 305.99,-167.1 305.99,-167.1 305.99,-170.2 302.89,-173.3 299.79,-173.3"/>
<text text-anchor="middle" x="268.5" y="-161.3" font-family="Helvetica,sans-Serif" font-size="9.00">remove&#45;item.js</text>
</a>
</g>
</g>
<!-- client/src/handlers/remove&#45;item.js&#45;&gt;client/data.js -->
<g id="edge7" class="edge">
<title>client/src/handlers/remove&#45;item.js&#45;&gt;client/data.js</title>
<path fill="none" stroke="#000000" stroke-width="2" stroke-opacity="0.200000" d="M303.57,-173.41C306.53,-175.23 309.25,-177.41 311.5,-180 327.63,-198.58 311.51,-212.65 323.75,-234 329.95,-244.82 339.93,-254.49 348.79,-261.72"/>
<polygon fill="#000000" fill-opacity="0.200000" stroke="#000000" stroke-width="2" stroke-opacity="0.200000" points="347.56,-263.42 353.57,-265.48 350.15,-260.12 347.56,-263.42"/>
</g>
<!-- client/src/handlers/remove&#45;item.js&#45;&gt;client/src/components/render&#45;table.js -->
<g id="edge8" class="edge">
<title>client/src/handlers/remove&#45;item.js&#45;&gt;client/src/components/render&#45;table.js</title>
<path fill="none" stroke="#000000" stroke-width="2" stroke-opacity="0.200000" d="M303.68,-154.68C306.62,-152.84 309.3,-150.64 311.5,-148 330.61,-125.09 309.43,-108.17 323.75,-82 329.74,-71.06 339.7,-61.38 348.61,-54.17"/>
<polygon fill="#000000" fill-opacity="0.200000" stroke="#000000" stroke-width="2" stroke-opacity="0.200000" points="349.97,-55.78 353.42,-50.44 347.4,-52.46 349.97,-55.78"/>
</g>
<!-- client/src/init/index.js -->
<g id="node8" class="node">
<title>client/src/init/index.js</title>
<g id="a_node8"><a xlink:href="../client/src/init/index.js" xlink:title="index.js">
<path fill="#ffffcc" stroke="black" d="M82.54,-157.3C82.54,-157.3 40.94,-157.3 40.94,-157.3 37.84,-157.3 34.74,-154.2 34.74,-151.1 34.74,-151.1 34.74,-144.9 34.74,-144.9 34.74,-141.8 37.84,-138.7 40.94,-138.7 40.94,-138.7 82.54,-138.7 82.54,-138.7 85.64,-138.7 88.74,-141.8 88.74,-144.9 88.74,-144.9 88.74,-151.1 88.74,-151.1 88.74,-154.2 85.64,-157.3 82.54,-157.3"/>
<text text-anchor="middle" x="61.74" y="-145.3" font-family="Helvetica,sans-Serif" font-size="9.00">index.js</text>
</a>
</g>
</g>
<!-- client/src/init/index.js&#45;&gt;client/data.js -->
<g id="edge9" class="edge">
<title>client/src/init/index.js&#45;&gt;client/data.js</title>
<path fill="none" stroke="#000000" stroke-width="2" stroke-opacity="0.200000" d="M64.68,-157.33C68.95,-175.37 80.98,-214.93 107.49,-234 176.46,-283.63 282.41,-282.79 335.24,-278.62"/>
<polygon fill="#000000" fill-opacity="0.200000" stroke="#000000" stroke-width="2" stroke-opacity="0.200000" points="335.61,-280.7 341.41,-278.1 335.25,-276.51 335.61,-280.7"/>
</g>
<!-- client/src/init/index.js&#45;&gt;client/src/components/render&#45;table.js -->
<g id="edge10" class="edge">
<title>client/src/init/index.js&#45;&gt;client/src/components/render&#45;table.js</title>
<path fill="none" stroke="#000000" stroke-width="2" stroke-opacity="0.200000" d="M74.97,-138.55C83.03,-131.71 93.22,-121.81 99.49,-111 106.2,-99.43 97.52,-90.91 107.49,-82 167.83,-28.1 269.08,-29.15 325.78,-34.91"/>
<polygon fill="#000000" fill-opacity="0.200000" stroke="#000000" stroke-width="2" stroke-opacity="0.200000" points="325.61,-37.01 331.8,-35.56 326.06,-32.83 325.61,-37.01"/>
</g>
<!-- client/src/listeners/edit&#45;description.js -->
<g id="node9" class="node">
<title>client/src/listeners/edit&#45;description.js</title>
<g id="a_node9"><a xlink:href="../client/src/listeners/edit-description.js" xlink:title="edit&#45;description.js">
<path fill="#ffffcc" stroke="black" d="M195.3,-111.3C195.3,-111.3 121.69,-111.3 121.69,-111.3 118.59,-111.3 115.49,-108.2 115.49,-105.1 115.49,-105.1 115.49,-98.9 115.49,-98.9 115.49,-95.8 118.59,-92.7 121.69,-92.7 121.69,-92.7 195.3,-92.7 195.3,-92.7 198.4,-92.7 201.5,-95.8 201.5,-98.9 201.5,-98.9 201.5,-105.1 201.5,-105.1 201.5,-108.2 198.4,-111.3 195.3,-111.3"/>
<text text-anchor="middle" x="158.49" y="-99.3" font-family="Helvetica,sans-Serif" font-size="9.00">edit&#45;description.js</text>
</a>
</g>
</g>
<!-- client/src/init/index.js&#45;&gt;client/src/listeners/edit&#45;description.js -->
<g id="edge11" class="edge">
<title>client/src/init/index.js&#45;&gt;client/src/listeners/edit&#45;description.js</title>
<path fill="none" stroke="#000000" stroke-width="2" stroke-opacity="0.200000" d="M74.72,-138.61C83.42,-132.14 95.7,-123.7 107.49,-118 110.88,-116.36 114.48,-114.83 118.14,-113.42"/>
<polygon fill="#000000" fill-opacity="0.200000" stroke="#000000" stroke-width="2" stroke-opacity="0.200000" points="118.99,-115.35 123.9,-111.31 117.54,-111.41 118.99,-115.35"/>
</g>
<!-- client/src/listeners/help&#45;section.js -->
<g id="node10" class="node">
<title>client/src/listeners/help&#45;section.js</title>
<g id="a_node10"><a xlink:href="../client/src/listeners/help-section.js" xlink:title="help&#45;section.js">
<path fill="#ffffcc" stroke="black" d="M188.8,-204.3C188.8,-204.3 128.18,-204.3 128.18,-204.3 125.08,-204.3 121.98,-201.2 121.98,-198.1 121.98,-198.1 121.98,-191.9 121.98,-191.9 121.98,-188.8 125.08,-185.7 128.18,-185.7 128.18,-185.7 188.8,-185.7 188.8,-185.7 191.9,-185.7 195,-188.8 195,-191.9 195,-191.9 195,-198.1 195,-198.1 195,-201.2 191.9,-204.3 188.8,-204.3"/>
<text text-anchor="middle" x="158.49" y="-192.3" font-family="Helvetica,sans-Serif" font-size="9.00">help&#45;section.js</text>
</a>
</g>
</g>
<!-- client/src/init/index.js&#45;&gt;client/src/listeners/help&#45;section.js -->
<g id="edge12" class="edge">
<title>client/src/init/index.js&#45;&gt;client/src/listeners/help&#45;section.js</title>
<path fill="none" stroke="#000000" stroke-width="2" stroke-opacity="0.200000" d="M74.3,-157.44C83,-164.18 95.45,-173.07 107.49,-179 110.81,-180.64 114.35,-182.16 117.94,-183.56"/>
<polygon fill="#000000" fill-opacity="0.200000" stroke="#000000" stroke-width="2" stroke-opacity="0.200000" points="117.24,-185.55 123.6,-185.66 118.7,-181.61 117.24,-185.55"/>
</g>
<!-- client/src/listeners/input&#45;items.js -->
<g id="node11" class="node">
<title>client/src/listeners/input&#45;items.js</title>
<g id="a_node11"><a xlink:href="../client/src/listeners/input-items.js" xlink:title="input&#45;items.js">
<path fill="#ffffcc" stroke="black" d="M186.79,-142.3C186.79,-142.3 130.19,-142.3 130.19,-142.3 127.09,-142.3 123.99,-139.2 123.99,-136.1 123.99,-136.1 123.99,-129.9 123.99,-129.9 123.99,-126.8 127.09,-123.7 130.19,-123.7 130.19,-123.7 186.79,-123.7 186.79,-123.7 189.89,-123.7 192.99,-126.8 192.99,-129.9 192.99,-129.9 192.99,-136.1 192.99,-136.1 192.99,-139.2 189.89,-142.3 186.79,-142.3"/>
<text text-anchor="middle" x="158.49" y="-130.3" font-family="Helvetica,sans-Serif" font-size="9.00">input&#45;items.js</text>
</a>
</g>
</g>
<!-- client/src/init/index.js&#45;&gt;client/src/listeners/input&#45;items.js -->
<g id="edge13" class="edge">
<title>client/src/init/index.js&#45;&gt;client/src/listeners/input&#45;items.js</title>
<path fill="none" stroke="#000000" stroke-width="2" stroke-opacity="0.200000" d="M88.88,-143.86C97.87,-142.44 108.13,-140.81 117.94,-139.26"/>
<polygon fill="#000000" fill-opacity="0.200000" stroke="#000000" stroke-width="2" stroke-opacity="0.200000" points="118.37,-141.32 123.97,-138.31 117.71,-137.17 118.37,-141.32"/>
</g>
<!-- client/src/listeners/remove&#45;list.js -->
<g id="node12" class="node">
<title>client/src/listeners/remove&#45;list.js</title>
<g id="a_node12"><a xlink:href="../client/src/listeners/remove-list.js" xlink:title="remove&#45;list.js">
<path fill="#ffffcc" stroke="black" d="M186.78,-173.3C186.78,-173.3 130.2,-173.3 130.2,-173.3 127.1,-173.3 124,-170.2 124,-167.1 124,-167.1 124,-160.9 124,-160.9 124,-157.8 127.1,-154.7 130.2,-154.7 130.2,-154.7 186.78,-154.7 186.78,-154.7 189.88,-154.7 192.98,-157.8 192.98,-160.9 192.98,-160.9 192.98,-167.1 192.98,-167.1 192.98,-170.2 189.88,-173.3 186.78,-173.3"/>
<text text-anchor="middle" x="158.49" y="-161.3" font-family="Helvetica,sans-Serif" font-size="9.00">remove&#45;list.js</text>
</a>
</g>
</g>
<!-- client/src/init/index.js&#45;&gt;client/src/listeners/remove&#45;list.js -->
<g id="edge14" class="edge">
<title>client/src/init/index.js&#45;&gt;client/src/listeners/remove&#45;list.js</title>
<path fill="none" stroke="#000000" stroke-width="2" stroke-opacity="0.200000" d="M88.88,-152.41C97.87,-153.93 108.13,-155.66 117.94,-157.32"/>
<polygon fill="#000000" fill-opacity="0.200000" stroke="#000000" stroke-width="2" stroke-opacity="0.200000" points="117.7,-159.41 123.97,-158.34 118.4,-155.27 117.7,-159.41"/>
</g>
<!-- client/src/listeners/edit&#45;description.js&#45;&gt;client/src/handlers/edit&#45;description.js -->
<g id="edge15" class="edge">
<title>client/src/listeners/edit&#45;description.js&#45;&gt;client/src/handlers/edit&#45;description.js</title>
<path fill="none" stroke="#000000" stroke-width="2" stroke-opacity="0.200000" d="M201.56,-102C207.3,-102 213.23,-102 219.07,-102"/>
<polygon fill="#000000" fill-opacity="0.200000" stroke="#000000" stroke-width="2" stroke-opacity="0.200000" points="219.37,-104.1 225.37,-102 219.37,-99.9 219.37,-104.1"/>
</g>
<!-- client/src/listeners/edit&#45;description.js&#45;&gt;client/src/handlers/new&#45;description.js -->
<g id="edge16" class="edge">
<title>client/src/listeners/edit&#45;description.js&#45;&gt;client/src/handlers/new&#45;description.js</title>
<path fill="none" stroke="#000000" stroke-width="2" stroke-opacity="0.200000" d="M189.61,-92.67C198.5,-90.34 208.31,-88.17 217.49,-87 258.94,-81.73 270.08,-81.55 311.5,-87 318.3,-87.89 325.45,-89.38 332.28,-91.07"/>
<polygon fill="#000000" fill-opacity="0.200000" stroke="#000000" stroke-width="2" stroke-opacity="0.200000" points="332.1,-93.19 338.44,-92.67 333.16,-89.13 332.1,-93.19"/>
</g>
<!-- client/src/listeners/help&#45;section.js&#45;&gt;client/src/handlers/help&#45;section.js -->
<g id="edge17" class="edge">
<title>client/src/listeners/help&#45;section.js&#45;&gt;client/src/handlers/help&#45;section.js</title>
<path fill="none" stroke="#000000" stroke-width="2" stroke-opacity="0.200000" d="M195.16,-195C204.92,-195 215.6,-195 225.68,-195"/>
<polygon fill="#000000" fill-opacity="0.200000" stroke="#000000" stroke-width="2" stroke-opacity="0.200000" points="225.87,-197.1 231.87,-195 225.87,-192.9 225.87,-197.1"/>
</g>
<!-- client/src/listeners/input&#45;items.js&#45;&gt;client/src/handlers/input&#45;items.js -->
<g id="edge18" class="edge">
<title>client/src/listeners/input&#45;items.js&#45;&gt;client/src/handlers/input&#45;items.js</title>
<path fill="none" stroke="#000000" stroke-width="2" stroke-opacity="0.200000" d="M193.07,-133C204.04,-133 216.34,-133 227.72,-133"/>
<polygon fill="#000000" fill-opacity="0.200000" stroke="#000000" stroke-width="2" stroke-opacity="0.200000" points="227.94,-135.1 233.94,-133 227.94,-130.9 227.94,-135.1"/>
</g>
<!-- client/src/listeners/remove&#45;list.js&#45;&gt;client/src/handlers/remove&#45;item.js -->
<g id="edge19" class="edge">
<title>client/src/listeners/remove&#45;list.js&#45;&gt;client/src/handlers/remove&#45;item.js</title>
<path fill="none" stroke="#000000" stroke-width="2" stroke-opacity="0.200000" d="M193.07,-164C203.11,-164 214.26,-164 224.81,-164"/>
<polygon fill="#000000" fill-opacity="0.200000" stroke="#000000" stroke-width="2" stroke-opacity="0.200000" points="224.93,-166.1 230.93,-164 224.93,-161.9 224.93,-166.1"/>
</g>
<!-- client/src/logic/array&#45;list.js -->
<g id="node13" class="node">
<title>client/src/logic/array&#45;list.js</title>
<g id="a_node13"><a xlink:href="../client/src/logic/array-list.js" xlink:title="array&#45;list.js">
<path fill="#ccffcc" stroke="black" d="M85.53,-81.3C85.53,-81.3 37.95,-81.3 37.95,-81.3 34.85,-81.3 31.75,-78.2 31.75,-75.1 31.75,-75.1 31.75,-68.9 31.75,-68.9 31.75,-65.8 34.85,-62.7 37.95,-62.7 37.95,-62.7 85.53,-62.7 85.53,-62.7 88.63,-62.7 91.73,-65.8 91.73,-68.9 91.73,-68.9 91.73,-75.1 91.73,-75.1 91.73,-78.2 88.63,-81.3 85.53,-81.3"/>
<text text-anchor="middle" x="61.74" y="-69.3" font-family="Helvetica,sans-Serif" font-size="9.00">array&#45;list.js</text>
</a>
</g>
</g>
</g>
</svg>
