<?xml version="1.0" encoding="UTF-8" standalone="no"?>
<!DOCTYPE svg PUBLIC "-//W3C//DTD SVG 1.1//EN"
 "http://www.w3.org/Graphics/SVG/1.1/DTD/svg11.dtd">
<!-- Generated by graphviz version 2.44.0 (20200408.0750)
 -->
<!-- Title: dependency&#45;cruiser output Pages: 1 -->
<svg width="453pt" height="296pt"
 viewBox="0.00 0.00 452.50 296.00" xmlns="http://www.w3.org/2000/svg" xmlns:xlink="http://www.w3.org/1999/xlink">
<g id="graph0" class="graph" transform="scale(1 1) rotate(0) translate(4 292)">
<title>dependency&#45;cruiser output</title>
<polygon fill="white" stroke="transparent" points="-4,4 -4,-292 448.5,-292 448.5,4 -4,4"/>
<g id="clust1" class="cluster">
<title>cluster_client</title>
<path fill="#ffffff" stroke="black" stroke-width="2" d="M20,-8C20,-8 424.5,-8 424.5,-8 430.5,-8 436.5,-14 436.5,-20 436.5,-20 436.5,-268 436.5,-268 436.5,-274 430.5,-280 424.5,-280 424.5,-280 20,-280 20,-280 14,-280 8,-274 8,-268 8,-268 8,-20 8,-20 8,-14 14,-8 20,-8"/>
<text text-anchor="middle" x="222.25" y="-267.9" font-family="Helvetica,sans-Serif" font-weight="bold" font-size="9.00">client</text>
</g>
<g id="clust2" class="cluster">
<title>cluster_client/src</title>
<path fill="#ffffff" stroke="black" stroke-width="2" d="M28,-16C28,-16 416.5,-16 416.5,-16 422.5,-16 428.5,-22 428.5,-28 428.5,-28 428.5,-215 428.5,-215 428.5,-221 422.5,-227 416.5,-227 416.5,-227 28,-227 28,-227 22,-227 16,-221 16,-215 16,-215 16,-28 16,-28 16,-22 22,-16 28,-16"/>
<text text-anchor="middle" x="222.25" y="-214.9" font-family="Helvetica,sans-Serif" font-weight="bold" font-size="9.00">src</text>
</g>
<g id="clust3" class="cluster">
<title>cluster_client/src/components</title>
<path fill="#ffffff" stroke="black" stroke-width="2" d="M335.75,-24C335.75,-24 401.25,-24 401.25,-24 407.25,-24 413.25,-30 413.25,-36 413.25,-36 413.25,-65 413.25,-65 413.25,-71 407.25,-77 401.25,-77 401.25,-77 335.75,-77 335.75,-77 329.75,-77 323.75,-71 323.75,-65 323.75,-65 323.75,-36 323.75,-36 323.75,-30 329.75,-24 335.75,-24"/>
<text text-anchor="middle" x="368.5" y="-64.9" font-family="Helvetica,sans-Serif" font-weight="bold" font-size="9.00">components</text>
</g>
<g id="clust4" class="cluster">
<title>cluster_client/src/handlers</title>
<path fill="#ffffff" stroke="black" stroke-width="2" d="M229.49,-85C229.49,-85 408.5,-85 408.5,-85 414.5,-85 420.5,-91 420.5,-97 420.5,-97 420.5,-188 420.5,-188 420.5,-194 414.5,-200 408.5,-200 408.5,-200 229.49,-200 229.49,-200 223.49,-200 217.49,-194 217.49,-188 217.49,-188 217.49,-97 217.49,-97 217.49,-91 223.49,-85 229.49,-85"/>
<text text-anchor="middle" x="319" y="-187.9" font-family="Helvetica,sans-Serif" font-weight="bold" font-size="9.00">handlers</text>
</g>
<g id="clust5" class="cluster">
<title>cluster_client/src/init</title>
<path fill="#ffffff" stroke="black" stroke-width="2" d="M38.74,-116C38.74,-116 84.74,-116 84.74,-116 90.74,-116 96.74,-122 96.74,-128 96.74,-128 96.74,-157 96.74,-157 96.74,-163 90.74,-169 84.74,-169 84.74,-169 38.74,-169 38.74,-169 32.74,-169 26.74,-163 26.74,-157 26.74,-157 26.74,-128 26.74,-128 26.74,-122 32.74,-116 38.74,-116"/>
<text text-anchor="middle" x="61.74" y="-156.9" font-family="Helvetica,sans-Serif" font-weight="bold" font-size="9.00">init</text>
</g>
<g id="clust6" class="cluster">
<title>cluster_client/src/listeners</title>
<path fill="#ffffff" stroke="black" stroke-width="2" d="M119.49,-85C119.49,-85 197.49,-85 197.49,-85 203.49,-85 209.49,-91 209.49,-97 209.49,-97 209.49,-188 209.49,-188 209.49,-194 203.49,-200 197.49,-200 197.49,-200 119.49,-200 119.49,-200 113.49,-200 107.49,-194 107.49,-188 107.49,-188 107.49,-97 107.49,-97 107.49,-91 113.49,-85 119.49,-85"/>
<text text-anchor="middle" x="158.49" y="-187.9" font-family="Helvetica,sans-Serif" font-weight="bold" font-size="9.00">listeners</text>
</g>
<g id="clust7" class="cluster">
<title>cluster_client/src/logic</title>
<path fill="#ffffff" stroke="black" stroke-width="2" d="M36,-40C36,-40 87.49,-40 87.49,-40 93.49,-40 99.49,-46 99.49,-52 99.49,-52 99.49,-81 99.49,-81 99.49,-87 93.49,-93 87.49,-93 87.49,-93 36,-93 36,-93 30,-93 24,-87 24,-81 24,-81 24,-52 24,-52 24,-46 30,-40 36,-40"/>
<text text-anchor="middle" x="61.74" y="-80.9" font-family="Helvetica,sans-Serif" font-weight="bold" font-size="9.00">logic</text>
</g>
<!-- client/data.js -->
<g id="node1" class="node">
<title>client/data.js</title>
<g id="a_node1"><a xlink:href="../client/data.js" xlink:title="data.js">
<path fill="#ffffcc" stroke="black" d="M389.3,-253.3C389.3,-253.3 347.7,-253.3 347.7,-253.3 344.6,-253.3 341.5,-250.2 341.5,-247.1 341.5,-247.1 341.5,-240.9 341.5,-240.9 341.5,-237.8 344.6,-234.7 347.7,-234.7 347.7,-234.7 389.3,-234.7 389.3,-234.7 392.4,-234.7 395.5,-237.8 395.5,-240.9 395.5,-240.9 395.5,-247.1 395.5,-247.1 395.5,-250.2 392.4,-253.3 389.3,-253.3"/>
<text text-anchor="middle" x="368.5" y="-241.3" font-family="Helvetica,sans-Serif" font-size="9.00">data.js</text>
</a>
</g>
</g>
<!-- client/src/components/render&#45;table.js -->
<g id="node2" class="node">
<title>client/src/components/render&#45;table.js</title>
<g id="a_node2"><a xlink:href="../client/src/components/render-table.js" xlink:title="render&#45;table.js">
<path fill="#ffffcc" stroke="black" d="M398.81,-50.3C398.81,-50.3 338.19,-50.3 338.19,-50.3 335.09,-50.3 331.99,-47.2 331.99,-44.1 331.99,-44.1 331.99,-37.9 331.99,-37.9 331.99,-34.8 335.09,-31.7 338.19,-31.7 338.19,-31.7 398.81,-31.7 398.81,-31.7 401.91,-31.7 405.01,-34.8 405.01,-37.9 405.01,-37.9 405.01,-44.1 405.01,-44.1 405.01,-47.2 401.91,-50.3 398.81,-50.3"/>
<text text-anchor="middle" x="368.5" y="-38.3" font-family="Helvetica,sans-Serif" font-size="9.00">render&#45;table.js</text>
</a>
</g>
</g>
<!-- client/src/handlers/edit&#45;description.js -->
<g id="node3" class="node">
<title>client/src/handlers/edit&#45;description.js</title>
<g id="a_node3"><a xlink:href="../client/src/handlers/edit-description.js" xlink:title="edit&#45;description.js">
<path fill="#ffffcc" stroke="black" d="M305.3,-111.3C305.3,-111.3 231.69,-111.3 231.69,-111.3 228.59,-111.3 225.49,-108.2 225.49,-105.1 225.49,-105.1 225.49,-98.9 225.49,-98.9 225.49,-95.8 228.59,-92.7 231.69,-92.7 231.69,-92.7 305.3,-92.7 305.3,-92.7 308.4,-92.7 311.5,-95.8 311.5,-98.9 311.5,-98.9 311.5,-105.1 311.5,-105.1 311.5,-108.2 308.4,-111.3 305.3,-111.3"/>
<text text-anchor="middle" x="268.5" y="-99.3" font-family="Helvetica,sans-Serif" font-size="9.00">edit&#45;description.js</text>
</a>
</g>
</g>
<!-- client/src/handlers/edit&#45;description.js&#45;&gt;client/data.js -->
<g id="edge1" class="edge">
<title>client/src/handlers/edit&#45;description.js&#45;&gt;client/data.js</title>
<path fill="none" stroke="#000000" stroke-width="2" stroke-opacity="0.200000" d="M304.19,-111.49C306.94,-113.29 309.45,-115.44 311.5,-118 335.35,-147.8 306.11,-169.15 323.75,-203 329.51,-214.06 339.47,-223.75 348.42,-230.93"/>
<polygon fill="#000000" fill-opacity="0.200000" stroke="#000000" stroke-width="2" stroke-opacity="0.200000" points="347.23,-232.66 353.26,-234.65 349.79,-229.33 347.23,-232.66"/>
</g>
<!-- client/src/handlers/edit&#45;description.js&#45;&gt;client/src/components/render&#45;table.js -->
<g id="edge2" class="edge">
<title>client/src/handlers/edit&#45;description.js&#45;&gt;client/src/components/render&#45;table.js</title>
<path fill="none" stroke="#000000" stroke-width="2" stroke-opacity="0.200000" d="M284.81,-92.47C301.5,-82.08 328.28,-65.41 346.83,-53.87"/>
<polygon fill="#000000" fill-opacity="0.200000" stroke="#000000" stroke-width="2" stroke-opacity="0.200000" points="348.31,-55.42 352.3,-50.46 346.09,-51.85 348.31,-55.42"/>
</g>
<!-- client/src/handlers/new&#45;description.js -->
<g id="node4" class="node">
<title>client/src/handlers/new&#45;description.js</title>
<g id="a_node4"><a xlink:href="../client/src/handlers/new-description.js" xlink:title="new&#45;description.js">
<path fill="#ffffcc" stroke="black" d="M406.31,-111.3C406.31,-111.3 330.7,-111.3 330.7,-111.3 327.6,-111.3 324.5,-108.2 324.5,-105.1 324.5,-105.1 324.5,-98.9 324.5,-98.9 324.5,-95.8 327.6,-92.7 330.7,-92.7 330.7,-92.7 406.31,-92.7 406.31,-92.7 409.41,-92.7 412.51,-95.8 412.51,-98.9 412.51,-98.9 412.51,-105.1 412.51,-105.1 412.51,-108.2 409.41,-111.3 406.31,-111.3"/>
<text text-anchor="middle" x="368.5" y="-99.3" font-family="Helvetica,sans-Serif" font-size="9.00">new&#45;description.js</text>
</a>
</g>
</g>
<!-- client/src/handlers/edit&#45;description.js&#45;&gt;client/src/handlers/new&#45;description.js -->
<g id="edge3" class="edge">
<title>client/src/handlers/edit&#45;description.js&#45;&gt;client/src/handlers/new&#45;description.js</title>
<path fill="none" stroke="#000000" stroke-width="2" stroke-opacity="0.200000" d="M311.63,-97.54C311.76,-97.54 311.89,-97.54 312.03,-97.54"/>
<polygon fill="#000000" fill-opacity="0.200000" stroke="#000000" stroke-width="2" stroke-opacity="0.200000" points="318.47,-99.63 324.47,-97.53 318.47,-95.43 318.47,-99.63"/>
<polyline fill="none" stroke="#000000" stroke-width="2" stroke-opacity="0.200000" points="318.47,-97.53 315.47,-97.53 "/>
<ellipse fill="none" stroke="#000000" stroke-width="2" stroke-opacity="0.200000" cx="313.07" cy="-97.53" rx="2.4" ry="2.4"/>
</g>
<!-- client/src/handlers/new&#45;description.js&#45;&gt;client/src/handlers/edit&#45;description.js -->
<g id="edge6" class="edge">
<title>client/src/handlers/new&#45;description.js&#45;&gt;client/src/handlers/edit&#45;description.js</title>
<path fill="none" stroke="#000000" stroke-width="2" stroke-opacity="0.200000" d="M324.47,-106.47C324.34,-106.47 324.2,-106.47 324.07,-106.47"/>
<polygon fill="#000000" fill-opacity="0.200000" stroke="#000000" stroke-width="2" stroke-opacity="0.200000" points="317.63,-104.37 311.63,-106.46 317.63,-108.57 317.63,-104.37"/>
<polyline fill="none" stroke="#000000" stroke-width="2" stroke-opacity="0.200000" points="317.63,-106.47 320.63,-106.47 "/>
<ellipse fill="none" stroke="#000000" stroke-width="2" stroke-opacity="0.200000" cx="323.03" cy="-106.47" rx="2.4" ry="2.4"/>
</g>
<!-- client/src/handlers/input&#45;items.js -->
<g id="node5" class="node">
<title>client/src/handlers/input&#45;items.js</title>
<g id="a_node5"><a xlink:href="../client/src/handlers/input-items.js" xlink:title="input&#45;items.js">
<path fill="#ffffcc" stroke="black" d="M296.79,-173.3C296.79,-173.3 240.2,-173.3 240.2,-173.3 237.1,-173.3 234,-170.2 234,-167.1 234,-167.1 234,-160.9 234,-160.9 234,-157.8 237.1,-154.7 240.2,-154.7 240.2,-154.7 296.79,-154.7 296.79,-154.7 299.9,-154.7 303,-157.8 303,-160.9 303,-160.9 303,-167.1 303,-167.1 303,-170.2 299.9,-173.3 296.79,-173.3"/>
<text text-anchor="middle" x="268.5" y="-161.3" font-family="Helvetica,sans-Serif" font-size="9.00">input&#45;items.js</text>
</a>
</g>
</g>
<!-- client/src/handlers/input&#45;items.js&#45;&gt;client/data.js -->
<g id="edge4" class="edge">
<title>client/src/handlers/input&#45;items.js&#45;&gt;client/data.js</title>
<path fill="none" stroke="#000000" stroke-width="2" stroke-opacity="0.200000" d="M303.4,-171.66C306.32,-173.13 309.08,-174.9 311.5,-177 321.14,-185.38 316.23,-192.67 323.75,-203 331.29,-213.37 341.71,-223.25 350.48,-230.72"/>
<polygon fill="#000000" fill-opacity="0.200000" stroke="#000000" stroke-width="2" stroke-opacity="0.200000" points="349.21,-232.38 355.16,-234.6 351.89,-229.15 349.21,-232.38"/>
</g>
<!-- client/src/handlers/input&#45;items.js&#45;&gt;client/src/components/render&#45;table.js -->
<g id="edge5" class="edge">
<title>client/src/handlers/input&#45;items.js&#45;&gt;client/src/components/render&#45;table.js</title>
<path fill="none" stroke="#000000" stroke-width="2" stroke-opacity="0.200000" d="M303.28,-154.93C306.37,-153.04 309.2,-150.76 311.5,-148 330.61,-125.09 309.43,-108.17 323.75,-82 329.74,-71.06 339.7,-61.38 348.61,-54.17"/>
<polygon fill="#000000" fill-opacity="0.200000" stroke="#000000" stroke-width="2" stroke-opacity="0.200000" points="349.97,-55.78 353.42,-50.44 347.4,-52.46 349.97,-55.78"/>
</g>
<!-- client/src/handlers/remove&#45;item.js -->
<g id="node6" class="node">
<title>client/src/handlers/remove&#45;item.js</title>
<g id="a_node6"><a xlink:href="../client/src/handlers/remove-item.js" xlink:title="remove&#45;item.js">
<path fill="#ffffcc" stroke="black" d="M299.79,-142.3C299.79,-142.3 237.2,-142.3 237.2,-142.3 234.1,-142.3 231,-139.2 231,-136.1 231,-136.1 231,-129.9 231,-129.9 231,-126.8 234.1,-123.7 237.2,-123.7 237.2,-123.7 299.79,-123.7 299.79,-123.7 302.89,-123.7 305.99,-126.8 305.99,-129.9 305.99,-129.9 305.99,-136.1 305.99,-136.1 305.99,-139.2 302.89,-142.3 299.79,-142.3"/>
<text text-anchor="middle" x="268.5" y="-130.3" font-family="Helvetica,sans-Serif" font-size="9.00">remove&#45;item.js</text>
</a>
</g>
</g>
<!-- client/src/handlers/remove&#45;item.js&#45;&gt;client/data.js -->
<g id="edge7" class="edge">
<title>client/src/handlers/remove&#45;item.js&#45;&gt;client/data.js</title>
<path fill="none" stroke="#000000" stroke-width="2" stroke-opacity="0.200000" d="M303.57,-142.41C306.53,-144.23 309.25,-146.41 311.5,-149 327.63,-167.58 311.51,-181.65 323.75,-203 329.95,-213.82 339.93,-223.49 348.79,-230.72"/>
<polygon fill="#000000" fill-opacity="0.200000" stroke="#000000" stroke-width="2" stroke-opacity="0.200000" points="347.56,-232.42 353.57,-234.48 350.15,-229.12 347.56,-232.42"/>
</g>
<!-- client/src/handlers/remove&#45;item.js&#45;&gt;client/src/components/render&#45;table.js -->
<g id="edge8" class="edge">
<title>client/src/handlers/remove&#45;item.js&#45;&gt;client/src/components/render&#45;table.js</title>
<path fill="none" stroke="#000000" stroke-width="2" stroke-opacity="0.200000" d="M302.86,-123.56C306.04,-121.74 309,-119.57 311.5,-117 322.99,-105.19 314.75,-95.81 323.75,-82 330.65,-71.4 340.86,-61.63 349.68,-54.28"/>
<polygon fill="#000000" fill-opacity="0.200000" stroke="#000000" stroke-width="2" stroke-opacity="0.200000" points="351.06,-55.87 354.4,-50.46 348.42,-52.6 351.06,-55.87"/>
</g>
<!-- client/src/init/index.js -->
<g id="node7" class="node">
<title>client/src/init/index.js</title>
<g id="a_node7"><a xlink:href="../client/src/init/index.js" xlink:title="index.js">
<path fill="#ffffcc" stroke="black" d="M82.54,-142.3C82.54,-142.3 40.94,-142.3 40.94,-142.3 37.84,-142.3 34.74,-139.2 34.74,-136.1 34.74,-136.1 34.74,-129.9 34.74,-129.9 34.74,-126.8 37.84,-123.7 40.94,-123.7 40.94,-123.7 82.54,-123.7 82.54,-123.7 85.64,-123.7 88.74,-126.8 88.74,-129.9 88.74,-129.9 88.74,-136.1 88.74,-136.1 88.74,-139.2 85.64,-142.3 82.54,-142.3"/>
<text text-anchor="middle" x="61.74" y="-130.3" font-family="Helvetica,sans-Serif" font-size="9.00">index.js</text>
</a>
</g>
</g>
<!-- client/src/init/index.js&#45;&gt;client/data.js -->
<g id="edge9" class="edge">
<title>client/src/init/index.js&#45;&gt;client/data.js</title>
<path fill="none" stroke="#000000" stroke-width="2" stroke-opacity="0.200000" d="M65.91,-142.55C71.59,-158.02 85.04,-188.32 107.49,-203 178.42,-249.39 283.04,-250.08 335.31,-246.94"/>
<polygon fill="#000000" fill-opacity="0.200000" stroke="#000000" stroke-width="2" stroke-opacity="0.200000" points="335.57,-249.03 341.42,-246.54 335.3,-244.84 335.57,-249.03"/>
</g>
<!-- client/src/init/index.js&#45;&gt;client/src/components/render&#45;table.js -->
<g id="edge10" class="edge">
<title>client/src/init/index.js&#45;&gt;client/src/components/render&#45;table.js</title>
<path fill="none" stroke="#000000" stroke-width="2" stroke-opacity="0.200000" d="M73.48,-123.61C81.25,-116.49 91.7,-106.23 99.49,-96 103.83,-90.3 101.59,-86.07 107.49,-82 173.22,-36.64 270.38,-34.1 325.43,-37.06"/>
<polygon fill="#000000" fill-opacity="0.200000" stroke="#000000" stroke-width="2" stroke-opacity="0.200000" points="325.49,-39.17 331.6,-37.43 325.74,-34.98 325.49,-39.17"/>
</g>
<!-- client/src/listeners/edit&#45;description.js -->
<g id="node8" class="node">
<title>client/src/listeners/edit&#45;description.js</title>
<g id="a_node8"><a xlink:href="../client/src/listeners/edit-description.js" xlink:title="edit&#45;description.js">
<path fill="#ffffcc" stroke="black" d="M195.3,-111.3C195.3,-111.3 121.69,-111.3 121.69,-111.3 118.59,-111.3 115.49,-108.2 115.49,-105.1 115.49,-105.1 115.49,-98.9 115.49,-98.9 115.49,-95.8 118.59,-92.7 121.69,-92.7 121.69,-92.7 195.3,-92.7 195.3,-92.7 198.4,-92.7 201.5,-95.8 201.5,-98.9 201.5,-98.9 201.5,-105.1 201.5,-105.1 201.5,-108.2 198.4,-111.3 195.3,-111.3"/>
<text text-anchor="middle" x="158.49" y="-99.3" font-family="Helvetica,sans-Serif" font-size="9.00">edit&#45;description.js</text>
</a>
</g>
</g>
<!-- client/src/init/index.js&#45;&gt;client/src/listeners/edit&#45;description.js -->
<g id="edge11" class="edge">
<title>client/src/init/index.js&#45;&gt;client/src/listeners/edit&#45;description.js</title>
<path fill="none" stroke="#000000" stroke-width="2" stroke-opacity="0.200000" d="M88.75,-124.21C94.89,-122.16 101.42,-119.99 107.49,-118 112.28,-116.43 117.34,-114.79 122.32,-113.19"/>
<polygon fill="#000000" fill-opacity="0.200000" stroke="#000000" stroke-width="2" stroke-opacity="0.200000" points="123.05,-115.16 128.12,-111.32 121.77,-111.16 123.05,-115.16"/>
</g>
<!-- client/src/listeners/input&#45;items.js -->
<g id="node9" class="node">
<title>client/src/listeners/input&#45;items.js</title>
<g id="a_node9"><a xlink:href="../client/src/listeners/input-items.js" xlink:title="input&#45;items.js">
<path fill="#ffffcc" stroke="black" d="M186.79,-173.3C186.79,-173.3 130.19,-173.3 130.19,-173.3 127.09,-173.3 123.99,-170.2 123.99,-167.1 123.99,-167.1 123.99,-160.9 123.99,-160.9 123.99,-157.8 127.09,-154.7 130.19,-154.7 130.19,-154.7 186.79,-154.7 186.79,-154.7 189.89,-154.7 192.99,-157.8 192.99,-160.9 192.99,-160.9 192.99,-167.1 192.99,-167.1 192.99,-170.2 189.89,-173.3 186.79,-173.3"/>
<text text-anchor="middle" x="158.49" y="-161.3" font-family="Helvetica,sans-Serif" font-size="9.00">input&#45;items.js</text>
</a>
</g>
</g>
<!-- client/src/init/index.js&#45;&gt;client/src/listeners/input&#45;items.js -->
<g id="edge12" class="edge">
<title>client/src/init/index.js&#45;&gt;client/src/listeners/input&#45;items.js</title>
<path fill="none" stroke="#000000" stroke-width="2" stroke-opacity="0.200000" d="M88.75,-141.79C94.89,-143.84 101.42,-146.01 107.49,-148 112.28,-149.57 117.34,-151.21 122.32,-152.81"/>
<polygon fill="#000000" fill-opacity="0.200000" stroke="#000000" stroke-width="2" stroke-opacity="0.200000" points="121.77,-154.84 128.12,-154.68 123.05,-150.84 121.77,-154.84"/>
</g>
<!-- client/src/listeners/remove&#45;list.js -->
<g id="node10" class="node">
<title>client/src/listeners/remove&#45;list.js</title>
<g id="a_node10"><a xlink:href="../client/src/listeners/remove-list.js" xlink:title="remove&#45;list.js">
<path fill="#ffffcc" stroke="black" d="M186.78,-142.3C186.78,-142.3 130.2,-142.3 130.2,-142.3 127.1,-142.3 124,-139.2 124,-136.1 124,-136.1 124,-129.9 124,-129.9 124,-126.8 127.1,-123.7 130.2,-123.7 130.2,-123.7 186.78,-123.7 186.78,-123.7 189.88,-123.7 192.98,-126.8 192.98,-129.9 192.98,-129.9 192.98,-136.1 192.98,-136.1 192.98,-139.2 189.88,-142.3 186.78,-142.3"/>
<text text-anchor="middle" x="158.49" y="-130.3" font-family="Helvetica,sans-Serif" font-size="9.00">remove&#45;list.js</text>
</a>
</g>
</g>
<!-- client/src/init/index.js&#45;&gt;client/src/listeners/remove&#45;list.js -->
<g id="edge13" class="edge">
<title>client/src/init/index.js&#45;&gt;client/src/listeners/remove&#45;list.js</title>
<path fill="none" stroke="#000000" stroke-width="2" stroke-opacity="0.200000" d="M88.88,-133C97.87,-133 108.13,-133 117.94,-133"/>
<polygon fill="#000000" fill-opacity="0.200000" stroke="#000000" stroke-width="2" stroke-opacity="0.200000" points="117.97,-135.1 123.97,-133 117.97,-130.9 117.97,-135.1"/>
</g>
<!-- client/src/listeners/edit&#45;description.js&#45;&gt;client/src/handlers/edit&#45;description.js -->
<g id="edge14" class="edge">
<title>client/src/listeners/edit&#45;description.js&#45;&gt;client/src/handlers/edit&#45;description.js</title>
<path fill="none" stroke="#000000" stroke-width="2" stroke-opacity="0.200000" d="M201.56,-102C207.3,-102 213.23,-102 219.07,-102"/>
<polygon fill="#000000" fill-opacity="0.200000" stroke="#000000" stroke-width="2" stroke-opacity="0.200000" points="219.37,-104.1 225.37,-102 219.37,-99.9 219.37,-104.1"/>
</g>
<!-- client/src/listeners/edit&#45;description.js&#45;&gt;client/src/handlers/new&#45;description.js -->
<g id="edge15" class="edge">
<title>client/src/listeners/edit&#45;description.js&#45;&gt;client/src/handlers/new&#45;description.js</title>
<path fill="none" stroke="#000000" stroke-width="2" stroke-opacity="0.200000" d="M189.61,-92.67C198.5,-90.34 208.31,-88.17 217.49,-87 258.94,-81.73 270.08,-81.55 311.5,-87 318.3,-87.89 325.45,-89.38 332.28,-91.07"/>
<polygon fill="#000000" fill-opacity="0.200000" stroke="#000000" stroke-width="2" stroke-opacity="0.200000" points="332.1,-93.19 338.44,-92.67 333.16,-89.13 332.1,-93.19"/>
</g>
<!-- client/src/listeners/input&#45;items.js&#45;&gt;client/src/handlers/input&#45;items.js -->
<g id="edge16" class="edge">
<title>client/src/listeners/input&#45;items.js&#45;&gt;client/src/handlers/input&#45;items.js</title>
<path fill="none" stroke="#000000" stroke-width="2" stroke-opacity="0.200000" d="M193.07,-164C204.04,-164 216.34,-164 227.72,-164"/>
<polygon fill="#000000" fill-opacity="0.200000" stroke="#000000" stroke-width="2" stroke-opacity="0.200000" points="227.94,-166.1 233.94,-164 227.94,-161.9 227.94,-166.1"/>
</g>
<!-- client/src/listeners/remove&#45;list.js&#45;&gt;client/src/handlers/remove&#45;item.js -->
<g id="edge17" class="edge">
<title>client/src/listeners/remove&#45;list.js&#45;&gt;client/src/handlers/remove&#45;item.js</title>
<path fill="none" stroke="#000000" stroke-width="2" stroke-opacity="0.200000" d="M193.07,-133C203.11,-133 214.26,-133 224.81,-133"/>
<polygon fill="#000000" fill-opacity="0.200000" stroke="#000000" stroke-width="2" stroke-opacity="0.200000" points="224.93,-135.1 230.93,-133 224.93,-130.9 224.93,-135.1"/>
</g>
<!-- client/src/logic/array&#45;list.js -->
<g id="node11" class="node">
<title>client/src/logic/array&#45;list.js</title>
<g id="a_node11"><a xlink:href="../client/src/logic/array-list.js" xlink:title="array&#45;list.js">
<path fill="#ccffcc" stroke="black" d="M85.53,-66.3C85.53,-66.3 37.95,-66.3 37.95,-66.3 34.85,-66.3 31.75,-63.2 31.75,-60.1 31.75,-60.1 31.75,-53.9 31.75,-53.9 31.75,-50.8 34.85,-47.7 37.95,-47.7 37.95,-47.7 85.53,-47.7 85.53,-47.7 88.63,-47.7 91.73,-50.8 91.73,-53.9 91.73,-53.9 91.73,-60.1 91.73,-60.1 91.73,-63.2 88.63,-66.3 85.53,-66.3"/>
<text text-anchor="middle" x="61.74" y="-54.3" font-family="Helvetica,sans-Serif" font-size="9.00">array&#45;list.js</text>
</a>
</g>
</g>
</g>
</svg>
