<?xml version="1.0" encoding="UTF-8" standalone="no"?>
<!DOCTYPE svg PUBLIC "-//W3C//DTD SVG 1.1//EN"
 "http://www.w3.org/Graphics/SVG/1.1/DTD/svg11.dtd">
<!-- Generated by graphviz version 2.44.0 (20200408.0750)
 -->
<!-- Title: dependency&#45;cruiser output Pages: 1 -->
<svg width="406pt" height="234pt"
 viewBox="0.00 0.00 406.48 234.00" xmlns="http://www.w3.org/2000/svg" xmlns:xlink="http://www.w3.org/1999/xlink">
<g id="graph0" class="graph" transform="scale(1 1) rotate(0) translate(4 230)">
<title>dependency&#45;cruiser output</title>
<polygon fill="white" stroke="transparent" points="-4,4 -4,-230 402.48,-230 402.48,4 -4,4"/>
<g id="clust1" class="cluster">
<title>cluster_client</title>
<path fill="#ffffff" stroke="black" stroke-width="2" d="M20,-8C20,-8 378.48,-8 378.48,-8 384.48,-8 390.48,-14 390.48,-20 390.48,-20 390.48,-206 390.48,-206 390.48,-212 384.48,-218 378.48,-218 378.48,-218 20,-218 20,-218 14,-218 8,-212 8,-206 8,-206 8,-20 8,-20 8,-14 14,-8 20,-8"/>
<text text-anchor="middle" x="199.24" y="-205.9" font-family="Helvetica,sans-Serif" font-weight="bold" font-size="9.00">client</text>
</g>
<g id="clust2" class="cluster">
<title>cluster_client/src</title>
<path fill="#ffffff" stroke="black" stroke-width="2" d="M28,-16C28,-16 370.48,-16 370.48,-16 376.48,-16 382.48,-22 382.48,-28 382.48,-28 382.48,-153 382.48,-153 382.48,-159 376.48,-165 370.48,-165 370.48,-165 28,-165 28,-165 22,-165 16,-159 16,-153 16,-153 16,-28 16,-28 16,-22 22,-16 28,-16"/>
<text text-anchor="middle" x="199.24" y="-152.9" font-family="Helvetica,sans-Serif" font-weight="bold" font-size="9.00">src</text>
</g>
<g id="clust3" class="cluster">
<title>cluster_client/src/components</title>
<path fill="#ffffff" stroke="black" stroke-width="2" d="M305.49,-72C305.49,-72 362.48,-72 362.48,-72 368.48,-72 374.48,-78 374.48,-84 374.48,-84 374.48,-113 374.48,-113 374.48,-119 368.48,-125 362.48,-125 362.48,-125 305.49,-125 305.49,-125 299.49,-125 293.49,-119 293.49,-113 293.49,-113 293.49,-84 293.49,-84 293.49,-78 299.49,-72 305.49,-72"/>
<text text-anchor="middle" x="333.98" y="-112.9" font-family="Helvetica,sans-Serif" font-weight="bold" font-size="9.00">components</text>
</g>
<g id="clust4" class="cluster">
<title>cluster_client/src/handlers</title>
<path fill="#ffffff" stroke="black" stroke-width="2" d="M212.49,-85C212.49,-85 273.49,-85 273.49,-85 279.49,-85 285.49,-91 285.49,-97 285.49,-97 285.49,-126 285.49,-126 285.49,-132 279.49,-138 273.49,-138 273.49,-138 212.49,-138 212.49,-138 206.49,-138 200.49,-132 200.49,-126 200.49,-126 200.49,-97 200.49,-97 200.49,-91 206.49,-85 212.49,-85"/>
<text text-anchor="middle" x="242.99" y="-125.9" font-family="Helvetica,sans-Serif" font-weight="bold" font-size="9.00">handlers</text>
</g>
<g id="clust5" class="cluster">
<title>cluster_client/src/init</title>
<path fill="#ffffff" stroke="black" stroke-width="2" d="M38.74,-85C38.74,-85 84.74,-85 84.74,-85 90.74,-85 96.74,-91 96.74,-97 96.74,-97 96.74,-126 96.74,-126 96.74,-132 90.74,-138 84.74,-138 84.74,-138 38.74,-138 38.74,-138 32.74,-138 26.74,-132 26.74,-126 26.74,-126 26.74,-97 26.74,-97 26.74,-91 32.74,-85 38.74,-85"/>
<text text-anchor="middle" x="61.74" y="-125.9" font-family="Helvetica,sans-Serif" font-weight="bold" font-size="9.00">init</text>
</g>
<g id="clust6" class="cluster">
<title>cluster_client/src/listeners</title>
<path fill="#ffffff" stroke="black" stroke-width="2" d="M119.49,-85C119.49,-85 180.49,-85 180.49,-85 186.49,-85 192.49,-91 192.49,-97 192.49,-97 192.49,-126 192.49,-126 192.49,-132 186.49,-138 180.49,-138 180.49,-138 119.49,-138 119.49,-138 113.49,-138 107.49,-132 107.49,-126 107.49,-126 107.49,-97 107.49,-97 107.49,-91 113.49,-85 119.49,-85"/>
<text text-anchor="middle" x="149.99" y="-125.9" font-family="Helvetica,sans-Serif" font-weight="bold" font-size="9.00">listeners</text>
</g>
<g id="clust7" class="cluster">
<title>cluster_client/src/logic</title>
<path fill="#ffffff" stroke="black" stroke-width="2" d="M36,-24C36,-24 87.49,-24 87.49,-24 93.49,-24 99.49,-30 99.49,-36 99.49,-36 99.49,-65 99.49,-65 99.49,-71 93.49,-77 87.49,-77 87.49,-77 36,-77 36,-77 30,-77 24,-71 24,-65 24,-65 24,-36 24,-36 24,-30 30,-24 36,-24"/>
<text text-anchor="middle" x="61.74" y="-64.9" font-family="Helvetica,sans-Serif" font-weight="bold" font-size="9.00">logic</text>
</g>
<!-- client/data.js -->
<g id="node1" class="node">
<title>client/data.js</title>
<g id="a_node1"><a xlink:href="../client/data.js" xlink:title="data.js">
<path fill="#ffffcc" stroke="black" d="M354.78,-191.3C354.78,-191.3 313.18,-191.3 313.18,-191.3 310.08,-191.3 306.98,-188.2 306.98,-185.1 306.98,-185.1 306.98,-178.9 306.98,-178.9 306.98,-175.8 310.08,-172.7 313.18,-172.7 313.18,-172.7 354.78,-172.7 354.78,-172.7 357.88,-172.7 360.98,-175.8 360.98,-178.9 360.98,-178.9 360.98,-185.1 360.98,-185.1 360.98,-188.2 357.88,-191.3 354.78,-191.3"/>
<text text-anchor="middle" x="333.98" y="-179.3" font-family="Helvetica,sans-Serif" font-size="9.00">data.js</text>
</a>
</g>
</g>
<!-- client/src/components/render&#45;list.js -->
<g id="node2" class="node">
<title>client/src/components/render&#45;list.js</title>
<g id="a_node2"><a xlink:href="../client/src/components/render-list.js" xlink:title="render&#45;list.js">
<path fill="#ffffcc" stroke="black" d="M360.28,-98.3C360.28,-98.3 307.69,-98.3 307.69,-98.3 304.59,-98.3 301.49,-95.2 301.49,-92.1 301.49,-92.1 301.49,-85.9 301.49,-85.9 301.49,-82.8 304.59,-79.7 307.69,-79.7 307.69,-79.7 360.28,-79.7 360.28,-79.7 363.38,-79.7 366.48,-82.8 366.48,-85.9 366.48,-85.9 366.48,-92.1 366.48,-92.1 366.48,-95.2 363.38,-98.3 360.28,-98.3"/>
<text text-anchor="middle" x="333.98" y="-86.3" font-family="Helvetica,sans-Serif" font-size="9.00">render&#45;list.js</text>
</a>
</g>
</g>
<!-- client/src/handlers/input&#45;items.js -->
<g id="node3" class="node">
<title>client/src/handlers/input&#45;items.js</title>
<g id="a_node3"><a xlink:href="../client/src/handlers/input-items.js" xlink:title="input&#45;items.js">
<path fill="#ffffcc" stroke="black" d="M271.29,-111.3C271.29,-111.3 214.69,-111.3 214.69,-111.3 211.59,-111.3 208.49,-108.2 208.49,-105.1 208.49,-105.1 208.49,-98.9 208.49,-98.9 208.49,-95.8 211.59,-92.7 214.69,-92.7 214.69,-92.7 271.29,-92.7 271.29,-92.7 274.39,-92.7 277.49,-95.8 277.49,-98.9 277.49,-98.9 277.49,-105.1 277.49,-105.1 277.49,-108.2 274.39,-111.3 271.29,-111.3"/>
<text text-anchor="middle" x="242.99" y="-99.3" font-family="Helvetica,sans-Serif" font-size="9.00">input&#45;items.js</text>
</a>
</g>
</g>
<!-- client/src/handlers/input&#45;items.js&#45;&gt;client/data.js -->
<g id="edge1" class="edge">
<title>client/src/handlers/input&#45;items.js&#45;&gt;client/data.js</title>
<path fill="none" stroke="#000000" stroke-width="2" stroke-opacity="0.200000" d="M277.67,-110.19C280.45,-111.55 283.1,-113.15 285.49,-115 290.84,-119.17 289.7,-122.37 293.49,-128 302.73,-141.75 313.93,-156.95 322.05,-167.71"/>
<polygon fill="#000000" fill-opacity="0.200000" stroke="#000000" stroke-width="2" stroke-opacity="0.200000" points="320.46,-169.09 325.76,-172.6 323.81,-166.55 320.46,-169.09"/>
</g>
<!-- client/src/handlers/input&#45;items.js&#45;&gt;client/src/components/render&#45;list.js -->
<g id="edge2" class="edge">
<title>client/src/handlers/input&#45;items.js&#45;&gt;client/src/components/render&#45;list.js</title>
<path fill="none" stroke="#000000" stroke-width="2" stroke-opacity="0.200000" d="M277.63,-97.09C283.34,-96.25 289.31,-95.38 295.12,-94.53"/>
<polygon fill="#000000" fill-opacity="0.200000" stroke="#000000" stroke-width="2" stroke-opacity="0.200000" points="295.71,-96.57 301.35,-93.62 295.11,-92.41 295.71,-96.57"/>
</g>
<!-- client/src/init/index.js -->
<g id="node4" class="node">
<title>client/src/init/index.js</title>
<g id="a_node4"><a xlink:href="../client/src/init/index.js" xlink:title="index.js">
<path fill="#ffffcc" stroke="black" d="M82.54,-111.3C82.54,-111.3 40.94,-111.3 40.94,-111.3 37.84,-111.3 34.74,-108.2 34.74,-105.1 34.74,-105.1 34.74,-98.9 34.74,-98.9 34.74,-95.8 37.84,-92.7 40.94,-92.7 40.94,-92.7 82.54,-92.7 82.54,-92.7 85.64,-92.7 88.74,-95.8 88.74,-98.9 88.74,-98.9 88.74,-105.1 88.74,-105.1 88.74,-108.2 85.64,-111.3 82.54,-111.3"/>
<text text-anchor="middle" x="61.74" y="-99.3" font-family="Helvetica,sans-Serif" font-size="9.00">index.js</text>
</a>
</g>
</g>
<!-- client/src/init/index.js&#45;&gt;client/data.js -->
<g id="edge3" class="edge">
<title>client/src/init/index.js&#45;&gt;client/data.js</title>
<path fill="none" stroke="#000000" stroke-width="2" stroke-opacity="0.200000" d="M70.63,-111.32C78.87,-120.4 92.63,-133.85 107.49,-141 171.36,-171.73 255.51,-179.54 300.81,-181.46"/>
<polygon fill="#000000" fill-opacity="0.200000" stroke="#000000" stroke-width="2" stroke-opacity="0.200000" points="300.86,-183.56 306.93,-181.69 301.02,-179.36 300.86,-183.56"/>
</g>
<!-- client/src/init/index.js&#45;&gt;client/src/components/render&#45;list.js -->
<g id="edge4" class="edge">
<title>client/src/init/index.js&#45;&gt;client/src/components/render&#45;list.js</title>
<path fill="none" stroke="#000000" stroke-width="2" stroke-opacity="0.200000" d="M79.17,-92.66C87.39,-88.51 97.67,-84.09 107.49,-82 172.24,-68.19 249.81,-75.67 295.02,-82.35"/>
<polygon fill="#000000" fill-opacity="0.200000" stroke="#000000" stroke-width="2" stroke-opacity="0.200000" points="294.94,-84.46 301.19,-83.28 295.57,-80.3 294.94,-84.46"/>
</g>
<!-- client/src/listeners/input&#45;items.js -->
<g id="node5" class="node">
<title>client/src/listeners/input&#45;items.js</title>
<g id="a_node5"><a xlink:href="../client/src/listeners/input-items.js" xlink:title="input&#45;items.js">
<path fill="#ffffcc" stroke="black" d="M178.29,-111.3C178.29,-111.3 121.69,-111.3 121.69,-111.3 118.59,-111.3 115.49,-108.2 115.49,-105.1 115.49,-105.1 115.49,-98.9 115.49,-98.9 115.49,-95.8 118.59,-92.7 121.69,-92.7 121.69,-92.7 178.29,-92.7 178.29,-92.7 181.39,-92.7 184.49,-95.8 184.49,-98.9 184.49,-98.9 184.49,-105.1 184.49,-105.1 184.49,-108.2 181.39,-111.3 178.29,-111.3"/>
<text text-anchor="middle" x="149.99" y="-99.3" font-family="Helvetica,sans-Serif" font-size="9.00">input&#45;items.js</text>
</a>
</g>
</g>
<!-- client/src/init/index.js&#45;&gt;client/src/listeners/input&#45;items.js -->
<g id="edge5" class="edge">
<title>client/src/init/index.js&#45;&gt;client/src/listeners/input&#45;items.js</title>
<path fill="none" stroke="#000000" stroke-width="2" stroke-opacity="0.200000" d="M89.09,-102C95.46,-102 102.41,-102 109.25,-102"/>
<polygon fill="#000000" fill-opacity="0.200000" stroke="#000000" stroke-width="2" stroke-opacity="0.200000" points="109.47,-104.1 115.47,-102 109.47,-99.9 109.47,-104.1"/>
</g>
<!-- client/src/listeners/input&#45;items.js&#45;&gt;client/src/handlers/input&#45;items.js -->
<g id="edge6" class="edge">
<title>client/src/listeners/input&#45;items.js&#45;&gt;client/src/handlers/input&#45;items.js</title>
<path fill="none" stroke="#000000" stroke-width="2" stroke-opacity="0.200000" d="M184.61,-102C190.27,-102 196.18,-102 201.97,-102"/>
<polygon fill="#000000" fill-opacity="0.200000" stroke="#000000" stroke-width="2" stroke-opacity="0.200000" points="202.2,-104.1 208.2,-102 202.19,-99.9 202.2,-104.1"/>
</g>
<!-- client/src/logic/array&#45;list.js -->
<g id="node6" class="node">
<title>client/src/logic/array&#45;list.js</title>
<g id="a_node6"><a xlink:href="../client/src/logic/array-list.js" xlink:title="array&#45;list.js">
<path fill="#ccffcc" stroke="black" d="M85.53,-50.3C85.53,-50.3 37.95,-50.3 37.95,-50.3 34.85,-50.3 31.75,-47.2 31.75,-44.1 31.75,-44.1 31.75,-37.9 31.75,-37.9 31.75,-34.8 34.85,-31.7 37.95,-31.7 37.95,-31.7 85.53,-31.7 85.53,-31.7 88.63,-31.7 91.73,-34.8 91.73,-37.9 91.73,-37.9 91.73,-44.1 91.73,-44.1 91.73,-47.2 88.63,-50.3 85.53,-50.3"/>
<text text-anchor="middle" x="61.74" y="-38.3" font-family="Helvetica,sans-Serif" font-size="9.00">array&#45;list.js</text>
</a>
</g>
</g>
</g>
</svg>
