<?xml version="1.0" encoding="UTF-8" standalone="no"?>
<!DOCTYPE svg PUBLIC "-//W3C//DTD SVG 1.1//EN"
 "http://www.w3.org/Graphics/SVG/1.1/DTD/svg11.dtd">
<!-- Generated by graphviz version 2.44.0 (20200408.0750)
 -->
<!-- Title: dependency&#45;cruiser output Pages: 1 -->
<svg width="447pt" height="450pt"
 viewBox="0.00 0.00 447.02 450.00" xmlns="http://www.w3.org/2000/svg" xmlns:xlink="http://www.w3.org/1999/xlink">
<g id="graph0" class="graph" transform="scale(1 1) rotate(0) translate(4 446)">
<title>dependency&#45;cruiser output</title>
<polygon fill="white" stroke="transparent" points="-4,4 -4,-446 443.02,-446 443.02,4 -4,4"/>
<g id="clust1" class="cluster">
<title>cluster_client</title>
<path fill="#ffffff" stroke="black" stroke-width="2" d="M20,-8C20,-8 419.02,-8 419.02,-8 425.02,-8 431.02,-14 431.02,-20 431.02,-20 431.02,-422 431.02,-422 431.02,-428 425.02,-434 419.02,-434 419.02,-434 20,-434 20,-434 14,-434 8,-428 8,-422 8,-422 8,-20 8,-20 8,-14 14,-8 20,-8"/>
<text text-anchor="middle" x="219.51" y="-421.9" font-family="Helvetica,sans-Serif" font-weight="bold" font-size="9.00">client</text>
</g>
<g id="clust2" class="cluster">
<title>cluster_client/src</title>
<path fill="#ffffff" stroke="black" stroke-width="2" d="M28,-16C28,-16 411.02,-16 411.02,-16 417.02,-16 423.02,-22 423.02,-28 423.02,-28 423.02,-369 423.02,-369 423.02,-375 417.02,-381 411.02,-381 411.02,-381 28,-381 28,-381 22,-381 16,-375 16,-369 16,-369 16,-28 16,-28 16,-22 22,-16 28,-16"/>
<text text-anchor="middle" x="219.51" y="-368.9" font-family="Helvetica,sans-Serif" font-weight="bold" font-size="9.00">src</text>
</g>
<g id="clust3" class="cluster">
<title>cluster_client/src/components</title>
<path fill="#ffffff" stroke="black" stroke-width="2" d="M330.26,-24C330.26,-24 395.77,-24 395.77,-24 401.77,-24 407.77,-30 407.77,-36 407.77,-36 407.77,-65 407.77,-65 407.77,-71 401.77,-77 395.77,-77 395.77,-77 330.26,-77 330.26,-77 324.26,-77 318.26,-71 318.26,-65 318.26,-65 318.26,-36 318.26,-36 318.26,-30 324.26,-24 330.26,-24"/>
<text text-anchor="middle" x="363.01" y="-64.9" font-family="Helvetica,sans-Serif" font-weight="bold" font-size="9.00">components</text>
</g>
<g id="clust4" class="cluster">
<title>cluster_client/src/handlers</title>
<path fill="#ffffff" stroke="black" stroke-width="2" d="M224.01,-85C224.01,-85 403.02,-85 403.02,-85 409.02,-85 415.02,-91 415.02,-97 415.02,-97 415.02,-250 415.02,-250 415.02,-256 409.02,-262 403.02,-262 403.02,-262 224.01,-262 224.01,-262 218.01,-262 212.01,-256 212.01,-250 212.01,-250 212.01,-97 212.01,-97 212.01,-91 218.01,-85 224.01,-85"/>
<text text-anchor="middle" x="313.51" y="-249.9" font-family="Helvetica,sans-Serif" font-weight="bold" font-size="9.00">handlers</text>
</g>
<g id="clust5" class="cluster">
<title>cluster_client/src/init</title>
<path fill="#ffffff" stroke="black" stroke-width="2" d="M36,-147C36,-147 82,-147 82,-147 88,-147 94,-153 94,-159 94,-159 94,-188 94,-188 94,-194 88,-200 82,-200 82,-200 36,-200 36,-200 30,-200 24,-194 24,-188 24,-188 24,-159 24,-159 24,-153 30,-147 36,-147"/>
<text text-anchor="middle" x="59" y="-187.9" font-family="Helvetica,sans-Serif" font-weight="bold" font-size="9.00">init</text>
</g>
<g id="clust6" class="cluster">
<title>cluster_client/src/listeners</title>
<path fill="#ffffff" stroke="black" stroke-width="2" d="M114,-85C114,-85 192.01,-85 192.01,-85 198.01,-85 204.01,-91 204.01,-97 204.01,-97 204.01,-250 204.01,-250 204.01,-256 198.01,-262 192.01,-262 192.01,-262 114,-262 114,-262 108,-262 102,-256 102,-250 102,-250 102,-97 102,-97 102,-91 108,-85 114,-85"/>
<text text-anchor="middle" x="153" y="-249.9" font-family="Helvetica,sans-Serif" font-weight="bold" font-size="9.00">listeners</text>
</g>
<g id="clust7" class="cluster">
<title>cluster_client/src/logic</title>
<path fill="#ffffff" stroke="black" stroke-width="2" d="M331.76,-270C331.76,-270 394.26,-270 394.26,-270 400.26,-270 406.26,-276 406.26,-282 406.26,-282 406.26,-342 406.26,-342 406.26,-348 400.26,-354 394.26,-354 394.26,-354 331.76,-354 331.76,-354 325.76,-354 319.76,-348 319.76,-342 319.76,-342 319.76,-282 319.76,-282 319.76,-276 325.76,-270 331.76,-270"/>
<text text-anchor="middle" x="363.01" y="-341.9" font-family="Helvetica,sans-Serif" font-weight="bold" font-size="9.00">logic</text>
</g>
<!-- client/data.js -->
<g id="node1" class="node">
<title>client/data.js</title>
<g id="a_node1"><a xlink:href="../client/data.js" xlink:title="data.js">
<path fill="#ffffcc" stroke="black" d="M383.81,-407.3C383.81,-407.3 342.21,-407.3 342.21,-407.3 339.11,-407.3 336.01,-404.2 336.01,-401.1 336.01,-401.1 336.01,-394.9 336.01,-394.9 336.01,-391.8 339.11,-388.7 342.21,-388.7 342.21,-388.7 383.81,-388.7 383.81,-388.7 386.91,-388.7 390.01,-391.8 390.01,-394.9 390.01,-394.9 390.01,-401.1 390.01,-401.1 390.01,-404.2 386.91,-407.3 383.81,-407.3"/>
<text text-anchor="middle" x="363.01" y="-395.3" font-family="Helvetica,sans-Serif" font-size="9.00">data.js</text>
</a>
</g>
</g>
<!-- client/src/components/render&#45;table.js -->
<g id="node2" class="node">
<title>client/src/components/render&#45;table.js</title>
<g id="a_node2"><a xlink:href="../client/src/components/render-table.js" xlink:title="render&#45;table.js">
<path fill="#ffffcc" stroke="black" d="M393.32,-50.3C393.32,-50.3 332.71,-50.3 332.71,-50.3 329.61,-50.3 326.51,-47.2 326.51,-44.1 326.51,-44.1 326.51,-37.9 326.51,-37.9 326.51,-34.8 329.61,-31.7 332.71,-31.7 332.71,-31.7 393.32,-31.7 393.32,-31.7 396.42,-31.7 399.52,-34.8 399.52,-37.9 399.52,-37.9 399.52,-44.1 399.52,-44.1 399.52,-47.2 396.42,-50.3 393.32,-50.3"/>
<text text-anchor="middle" x="363.01" y="-38.3" font-family="Helvetica,sans-Serif" font-size="9.00">render&#45;table.js</text>
</a>
</g>
</g>
<!-- client/src/handlers/edit&#45;description.js -->
<g id="node3" class="node">
<title>client/src/handlers/edit&#45;description.js</title>
<g id="a_node3"><a xlink:href="../client/src/handlers/edit-description.js" xlink:title="edit&#45;description.js">
<path fill="#ffffcc" stroke="black" d="M299.81,-111.3C299.81,-111.3 226.2,-111.3 226.2,-111.3 223.1,-111.3 220,-108.2 220,-105.1 220,-105.1 220,-98.9 220,-98.9 220,-95.8 223.1,-92.7 226.2,-92.7 226.2,-92.7 299.81,-92.7 299.81,-92.7 302.91,-92.7 306.01,-95.8 306.01,-98.9 306.01,-98.9 306.01,-105.1 306.01,-105.1 306.01,-108.2 302.91,-111.3 299.81,-111.3"/>
<text text-anchor="middle" x="263.01" y="-99.3" font-family="Helvetica,sans-Serif" font-size="9.00">edit&#45;description.js</text>
</a>
</g>
</g>
<!-- client/src/handlers/edit&#45;description.js&#45;&gt;client/data.js -->
<g id="edge1" class="edge">
<title>client/src/handlers/edit&#45;description.js&#45;&gt;client/data.js</title>
<path fill="none" stroke="#000000" stroke-width="2" stroke-opacity="0.200000" d="M299.33,-111.56C301.89,-113.35 304.17,-115.48 306.01,-118 337.3,-161 295.87,-308.76 318.26,-357 323.44,-368.15 333.15,-377.74 342.12,-384.84"/>
<polygon fill="#000000" fill-opacity="0.200000" stroke="#000000" stroke-width="2" stroke-opacity="0.200000" points="340.93,-386.58 346.98,-388.52 343.46,-383.22 340.93,-386.58"/>
</g>
<!-- client/src/handlers/edit&#45;description.js&#45;&gt;client/src/components/render&#45;table.js -->
<g id="edge2" class="edge">
<title>client/src/handlers/edit&#45;description.js&#45;&gt;client/src/components/render&#45;table.js</title>
<path fill="none" stroke="#000000" stroke-width="2" stroke-opacity="0.200000" d="M279.32,-92.47C296.01,-82.08 322.79,-65.41 341.34,-53.87"/>
<polygon fill="#000000" fill-opacity="0.200000" stroke="#000000" stroke-width="2" stroke-opacity="0.200000" points="342.82,-55.42 346.81,-50.46 340.6,-51.85 342.82,-55.42"/>
</g>
<!-- client/src/handlers/new&#45;description.js -->
<g id="node4" class="node">
<title>client/src/handlers/new&#45;description.js</title>
<g id="a_node4"><a xlink:href="../client/src/handlers/new-description.js" xlink:title="new&#45;description.js">
<path fill="#ffffcc" stroke="black" d="M400.82,-111.3C400.82,-111.3 325.21,-111.3 325.21,-111.3 322.11,-111.3 319.01,-108.2 319.01,-105.1 319.01,-105.1 319.01,-98.9 319.01,-98.9 319.01,-95.8 322.11,-92.7 325.21,-92.7 325.21,-92.7 400.82,-92.7 400.82,-92.7 403.92,-92.7 407.02,-95.8 407.02,-98.9 407.02,-98.9 407.02,-105.1 407.02,-105.1 407.02,-108.2 403.92,-111.3 400.82,-111.3"/>
<text text-anchor="middle" x="363.01" y="-99.3" font-family="Helvetica,sans-Serif" font-size="9.00">new&#45;description.js</text>
</a>
</g>
</g>
<!-- client/src/handlers/edit&#45;description.js&#45;&gt;client/src/handlers/new&#45;description.js -->
<g id="edge3" class="edge">
<title>client/src/handlers/edit&#45;description.js&#45;&gt;client/src/handlers/new&#45;description.js</title>
<path fill="none" stroke="#000000" stroke-width="2" stroke-opacity="0.200000" d="M306.14,-97.54C306.27,-97.54 306.41,-97.54 306.54,-97.54"/>
<polygon fill="#000000" fill-opacity="0.200000" stroke="#000000" stroke-width="2" stroke-opacity="0.200000" points="312.98,-99.63 318.98,-97.53 312.98,-95.43 312.98,-99.63"/>
<polyline fill="none" stroke="#000000" stroke-width="2" stroke-opacity="0.200000" points="312.98,-97.53 309.98,-97.53 "/>
<ellipse fill="none" stroke="#000000" stroke-width="2" stroke-opacity="0.200000" cx="307.58" cy="-97.53" rx="2.4" ry="2.4"/>
</g>
<!-- client/src/handlers/new&#45;description.js&#45;&gt;client/src/handlers/edit&#45;description.js -->
<g id="edge6" class="edge">
<title>client/src/handlers/new&#45;description.js&#45;&gt;client/src/handlers/edit&#45;description.js</title>
<path fill="none" stroke="#000000" stroke-width="2" stroke-opacity="0.200000" d="M318.98,-106.47C318.85,-106.47 318.72,-106.47 318.58,-106.47"/>
<polygon fill="#000000" fill-opacity="0.200000" stroke="#000000" stroke-width="2" stroke-opacity="0.200000" points="312.14,-104.37 306.14,-106.46 312.14,-108.57 312.14,-104.37"/>
<polyline fill="none" stroke="#000000" stroke-width="2" stroke-opacity="0.200000" points="312.14,-106.47 315.14,-106.47 "/>
<ellipse fill="none" stroke="#000000" stroke-width="2" stroke-opacity="0.200000" cx="317.54" cy="-106.47" rx="2.4" ry="2.4"/>
</g>
<!-- client/src/handlers/help&#45;section.js -->
<g id="node5" class="node">
<title>client/src/handlers/help&#45;section.js</title>
<g id="a_node5"><a xlink:href="../client/src/handlers/help-section.js" xlink:title="help&#45;section.js">
<path fill="#ffffcc" stroke="black" d="M293.32,-142.3C293.32,-142.3 232.7,-142.3 232.7,-142.3 229.6,-142.3 226.5,-139.2 226.5,-136.1 226.5,-136.1 226.5,-129.9 226.5,-129.9 226.5,-126.8 229.6,-123.7 232.7,-123.7 232.7,-123.7 293.32,-123.7 293.32,-123.7 296.42,-123.7 299.52,-126.8 299.52,-129.9 299.52,-129.9 299.52,-136.1 299.52,-136.1 299.52,-139.2 296.42,-142.3 293.32,-142.3"/>
<text text-anchor="middle" x="263.01" y="-130.3" font-family="Helvetica,sans-Serif" font-size="9.00">help&#45;section.js</text>
</a>
</g>
</g>
<!-- client/src/handlers/input&#45;items.js -->
<g id="node6" class="node">
<title>client/src/handlers/input&#45;items.js</title>
<g id="a_node6"><a xlink:href="../client/src/handlers/input-items.js" xlink:title="input&#45;items.js">
<path fill="#ffffcc" stroke="black" d="M291.31,-173.3C291.31,-173.3 234.71,-173.3 234.71,-173.3 231.61,-173.3 228.51,-170.2 228.51,-167.1 228.51,-167.1 228.51,-160.9 228.51,-160.9 228.51,-157.8 231.61,-154.7 234.71,-154.7 234.71,-154.7 291.31,-154.7 291.31,-154.7 294.41,-154.7 297.51,-157.8 297.51,-160.9 297.51,-160.9 297.51,-167.1 297.51,-167.1 297.51,-170.2 294.41,-173.3 291.31,-173.3"/>
<text text-anchor="middle" x="263.01" y="-161.3" font-family="Helvetica,sans-Serif" font-size="9.00">input&#45;items.js</text>
</a>
</g>
</g>
<!-- client/src/handlers/input&#45;items.js&#45;&gt;client/data.js -->
<g id="edge4" class="edge">
<title>client/src/handlers/input&#45;items.js&#45;&gt;client/data.js</title>
<path fill="none" stroke="#000000" stroke-width="2" stroke-opacity="0.200000" d="M297.72,-172.56C300.91,-174.55 303.78,-176.99 306.01,-180 329.49,-211.67 301.34,-321.39 318.26,-357 323.54,-368.11 333.26,-377.69 342.2,-384.8"/>
<polygon fill="#000000" fill-opacity="0.200000" stroke="#000000" stroke-width="2" stroke-opacity="0.200000" points="341.01,-386.53 347.06,-388.48 343.55,-383.18 341.01,-386.53"/>
</g>
<!-- client/src/handlers/input&#45;items.js&#45;&gt;client/src/components/render&#45;table.js -->
<g id="edge5" class="edge">
<title>client/src/handlers/input&#45;items.js&#45;&gt;client/src/components/render&#45;table.js</title>
<path fill="none" stroke="#000000" stroke-width="2" stroke-opacity="0.200000" d="M297.79,-154.93C300.88,-153.04 303.71,-150.76 306.01,-148 325.12,-125.09 303.94,-108.17 318.26,-82 324.25,-71.06 334.21,-61.38 343.12,-54.17"/>
<polygon fill="#000000" fill-opacity="0.200000" stroke="#000000" stroke-width="2" stroke-opacity="0.200000" points="344.49,-55.78 347.93,-50.44 341.91,-52.46 344.49,-55.78"/>
</g>
<!-- client/src/handlers/remove&#45;item.js -->
<g id="node7" class="node">
<title>client/src/handlers/remove&#45;item.js</title>
<g id="a_node7"><a xlink:href="../client/src/handlers/remove-item.js" xlink:title="remove&#45;item.js">
<path fill="#ffffcc" stroke="black" d="M294.3,-204.3C294.3,-204.3 231.72,-204.3 231.72,-204.3 228.62,-204.3 225.52,-201.2 225.52,-198.1 225.52,-198.1 225.52,-191.9 225.52,-191.9 225.52,-188.8 228.62,-185.7 231.72,-185.7 231.72,-185.7 294.3,-185.7 294.3,-185.7 297.4,-185.7 300.5,-188.8 300.5,-191.9 300.5,-191.9 300.5,-198.1 300.5,-198.1 300.5,-201.2 297.4,-204.3 294.3,-204.3"/>
<text text-anchor="middle" x="263.01" y="-192.3" font-family="Helvetica,sans-Serif" font-size="9.00">remove&#45;item.js</text>
</a>
</g>
</g>
<!-- client/src/handlers/remove&#45;item.js&#45;&gt;client/data.js -->
<g id="edge7" class="edge">
<title>client/src/handlers/remove&#45;item.js&#45;&gt;client/data.js</title>
<path fill="none" stroke="#000000" stroke-width="2" stroke-opacity="0.200000" d="M298.86,-204.36C301.59,-206.19 304.04,-208.38 306.01,-211 325.59,-237.01 304.08,-327.69 318.26,-357 323.62,-368.07 333.35,-377.65 342.27,-384.76"/>
<polygon fill="#000000" fill-opacity="0.200000" stroke="#000000" stroke-width="2" stroke-opacity="0.200000" points="341.07,-386.49 347.12,-388.45 343.62,-383.15 341.07,-386.49"/>
</g>
<!-- client/src/handlers/remove&#45;item.js&#45;&gt;client/src/components/render&#45;table.js -->
<g id="edge8" class="edge">
<title>client/src/handlers/remove&#45;item.js&#45;&gt;client/src/components/render&#45;table.js</title>
<path fill="none" stroke="#000000" stroke-width="2" stroke-opacity="0.200000" d="M298.74,-185.55C301.49,-183.74 303.99,-181.58 306.01,-179 332.87,-144.84 298.51,-120.71 318.26,-82 323.93,-70.89 333.87,-61.2 342.85,-54.03"/>
<polygon fill="#000000" fill-opacity="0.200000" stroke="#000000" stroke-width="2" stroke-opacity="0.200000" points="344.22,-55.63 347.71,-50.32 341.67,-52.29 344.22,-55.63"/>
</g>
<!-- client/src/handlers/sort&#45;list.js -->
<g id="node8" class="node">
<title>client/src/handlers/sort&#45;list.js</title>
<g id="a_node8"><a xlink:href="../client/src/handlers/sort-list.js" xlink:title="sort&#45;list.js">
<path fill="#ffffcc" stroke="black" d="M283.81,-235.3C283.81,-235.3 242.21,-235.3 242.21,-235.3 239.11,-235.3 236.01,-232.2 236.01,-229.1 236.01,-229.1 236.01,-222.9 236.01,-222.9 236.01,-219.8 239.11,-216.7 242.21,-216.7 242.21,-216.7 283.81,-216.7 283.81,-216.7 286.91,-216.7 290.01,-219.8 290.01,-222.9 290.01,-222.9 290.01,-229.1 290.01,-229.1 290.01,-232.2 286.91,-235.3 283.81,-235.3"/>
<text text-anchor="middle" x="263.01" y="-223.3" font-family="Helvetica,sans-Serif" font-size="9.00">sort&#45;list.js</text>
</a>
</g>
</g>
<!-- client/src/handlers/sort&#45;list.js&#45;&gt;client/data.js -->
<g id="edge9" class="edge">
<title>client/src/handlers/sort&#45;list.js&#45;&gt;client/data.js</title>
<path fill="none" stroke="#000000" stroke-width="2" stroke-opacity="0.200000" d="M290.34,-229.15C296.3,-231.09 302.04,-234.16 306.01,-239 322.73,-259.38 306.54,-333.38 318.26,-357 323.73,-368.01 333.46,-377.59 342.37,-384.72"/>
<polygon fill="#000000" fill-opacity="0.200000" stroke="#000000" stroke-width="2" stroke-opacity="0.200000" points="341.15,-386.43 347.19,-388.42 343.71,-383.1 341.15,-386.43"/>
</g>
<!-- client/src/handlers/sort&#45;list.js&#45;&gt;client/src/components/render&#45;table.js -->
<g id="edge10" class="edge">
<title>client/src/handlers/sort&#45;list.js&#45;&gt;client/src/components/render&#45;table.js</title>
<path fill="none" stroke="#000000" stroke-width="2" stroke-opacity="0.200000" d="M290.03,-221.1C296.15,-218.73 302.04,-215.21 306.01,-210 323.33,-187.27 305.66,-107.65 318.26,-82 323.68,-70.96 333.42,-61.38 342.33,-54.26"/>
<polygon fill="#000000" fill-opacity="0.200000" stroke="#000000" stroke-width="2" stroke-opacity="0.200000" points="343.67,-55.88 347.16,-50.57 341.12,-52.54 343.67,-55.88"/>
</g>
<!-- client/src/logic/table&#45;sorter.js -->
<g id="node9" class="node">
<title>client/src/logic/table&#45;sorter.js</title>
<g id="a_node9"><a xlink:href="../client/src/logic/table-sorter.js" xlink:title="table&#45;sorter.js">
<path fill="#ffffcc" stroke="black" d="M391.82,-327.3C391.82,-327.3 334.21,-327.3 334.21,-327.3 331.11,-327.3 328.01,-324.2 328.01,-321.1 328.01,-321.1 328.01,-314.9 328.01,-314.9 328.01,-311.8 331.11,-308.7 334.21,-308.7 334.21,-308.7 391.82,-308.7 391.82,-308.7 394.92,-308.7 398.02,-311.8 398.02,-314.9 398.02,-314.9 398.02,-321.1 398.02,-321.1 398.02,-324.2 394.92,-327.3 391.82,-327.3"/>
<text text-anchor="middle" x="363.01" y="-315.3" font-family="Helvetica,sans-Serif" font-size="9.00">table&#45;sorter.js</text>
</a>
</g>
</g>
<!-- client/src/handlers/sort&#45;list.js&#45;&gt;client/src/logic/table&#45;sorter.js -->
<g id="edge11" class="edge">
<title>client/src/handlers/sort&#45;list.js&#45;&gt;client/src/logic/table&#45;sorter.js</title>
<path fill="none" stroke="#000000" stroke-width="2" stroke-opacity="0.200000" d="M290.05,-229.4C296.02,-231.33 301.83,-234.34 306.01,-239 325.06,-260.23 299.75,-280.3 318.26,-302 319.57,-303.54 321.05,-304.93 322.64,-306.19"/>
<polygon fill="#000000" fill-opacity="0.200000" stroke="#000000" stroke-width="2" stroke-opacity="0.200000" points="321.56,-307.99 327.71,-309.57 323.88,-304.49 321.56,-307.99"/>
</g>
<!-- client/src/init/index.js -->
<g id="node10" class="node">
<title>client/src/init/index.js</title>
<g id="a_node10"><a xlink:href="../client/src/init/index.js" xlink:title="index.js">
<path fill="#ffffcc" stroke="black" d="M79.8,-173.3C79.8,-173.3 38.2,-173.3 38.2,-173.3 35.1,-173.3 32,-170.2 32,-167.1 32,-167.1 32,-160.9 32,-160.9 32,-157.8 35.1,-154.7 38.2,-154.7 38.2,-154.7 79.8,-154.7 79.8,-154.7 82.9,-154.7 86,-157.8 86,-160.9 86,-160.9 86,-167.1 86,-167.1 86,-170.2 82.9,-173.3 79.8,-173.3"/>
<text text-anchor="middle" x="59" y="-161.3" font-family="Helvetica,sans-Serif" font-size="9.00">index.js</text>
</a>
</g>
</g>
<!-- client/src/init/index.js&#45;&gt;client/data.js -->
<g id="edge12" class="edge">
<title>client/src/init/index.js&#45;&gt;client/data.js</title>
<path fill="none" stroke="#000000" stroke-width="2" stroke-opacity="0.200000" d="M61.68,-173.54C65.54,-192.98 76.74,-237.67 102,-265 166.45,-334.74 275.76,-373.62 329.8,-389.47"/>
<polygon fill="#000000" fill-opacity="0.200000" stroke="#000000" stroke-width="2" stroke-opacity="0.200000" points="329.45,-391.55 335.79,-391.2 330.61,-387.52 329.45,-391.55"/>
</g>
<!-- client/src/init/index.js&#45;&gt;client/src/components/render&#45;table.js -->
<g id="edge13" class="edge">
<title>client/src/init/index.js&#45;&gt;client/src/components/render&#45;table.js</title>
<path fill="none" stroke="#000000" stroke-width="2" stroke-opacity="0.200000" d="M61.9,-154.57C65.94,-137.13 77.13,-100.02 102,-82 166.86,-35.02 264.76,-33.15 320.08,-36.64"/>
<polygon fill="#000000" fill-opacity="0.200000" stroke="#000000" stroke-width="2" stroke-opacity="0.200000" points="320.15,-38.75 326.28,-37.07 320.44,-34.56 320.15,-38.75"/>
</g>
<!-- client/src/listeners/edit&#45;description.js -->
<g id="node11" class="node">
<title>client/src/listeners/edit&#45;description.js</title>
<g id="a_node11"><a xlink:href="../client/src/listeners/edit-description.js" xlink:title="edit&#45;description.js">
<path fill="#ffffcc" stroke="black" d="M189.81,-111.3C189.81,-111.3 116.2,-111.3 116.2,-111.3 113.1,-111.3 110,-108.2 110,-105.1 110,-105.1 110,-98.9 110,-98.9 110,-95.8 113.1,-92.7 116.2,-92.7 116.2,-92.7 189.81,-92.7 189.81,-92.7 192.91,-92.7 196.01,-95.8 196.01,-98.9 196.01,-98.9 196.01,-105.1 196.01,-105.1 196.01,-108.2 192.91,-111.3 189.81,-111.3"/>
<text text-anchor="middle" x="153" y="-99.3" font-family="Helvetica,sans-Serif" font-size="9.00">edit&#45;description.js</text>
</a>
</g>
</g>
<!-- client/src/init/index.js&#45;&gt;client/src/listeners/edit&#45;description.js -->
<g id="edge14" class="edge">
<title>client/src/init/index.js&#45;&gt;client/src/listeners/edit&#45;description.js</title>
<path fill="none" stroke="#000000" stroke-width="2" stroke-opacity="0.200000" d="M66.32,-154.53C73.72,-144.16 86.89,-127.69 102,-118 104.41,-116.45 106.99,-115.04 109.65,-113.76"/>
<polygon fill="#000000" fill-opacity="0.200000" stroke="#000000" stroke-width="2" stroke-opacity="0.200000" points="110.57,-115.65 115.21,-111.31 108.88,-111.81 110.57,-115.65"/>
</g>
<!-- client/src/listeners/help&#45;section.js -->
<g id="node12" class="node">
<title>client/src/listeners/help&#45;section.js</title>
<g id="a_node12"><a xlink:href="../client/src/listeners/help-section.js" xlink:title="help&#45;section.js">
<path fill="#ffffcc" stroke="black" d="M183.31,-142.3C183.31,-142.3 122.69,-142.3 122.69,-142.3 119.59,-142.3 116.49,-139.2 116.49,-136.1 116.49,-136.1 116.49,-129.9 116.49,-129.9 116.49,-126.8 119.59,-123.7 122.69,-123.7 122.69,-123.7 183.31,-123.7 183.31,-123.7 186.41,-123.7 189.51,-126.8 189.51,-129.9 189.51,-129.9 189.51,-136.1 189.51,-136.1 189.51,-139.2 186.41,-142.3 183.31,-142.3"/>
<text text-anchor="middle" x="153" y="-130.3" font-family="Helvetica,sans-Serif" font-size="9.00">help&#45;section.js</text>
</a>
</g>
</g>
<!-- client/src/init/index.js&#45;&gt;client/src/listeners/help&#45;section.js -->
<g id="edge15" class="edge">
<title>client/src/init/index.js&#45;&gt;client/src/listeners/help&#45;section.js</title>
<path fill="none" stroke="#000000" stroke-width="2" stroke-opacity="0.200000" d="M85.72,-154.66C91.09,-152.76 96.72,-150.79 102,-149 106.72,-147.4 111.7,-145.76 116.61,-144.16"/>
<polygon fill="#000000" fill-opacity="0.200000" stroke="#000000" stroke-width="2" stroke-opacity="0.200000" points="117.27,-146.16 122.34,-142.31 115.98,-142.16 117.27,-146.16"/>
</g>
<!-- client/src/listeners/input&#45;items.js -->
<g id="node13" class="node">
<title>client/src/listeners/input&#45;items.js</title>
<g id="a_node13"><a xlink:href="../client/src/listeners/input-items.js" xlink:title="input&#45;items.js">
<path fill="#ffffcc" stroke="black" d="M181.3,-173.3C181.3,-173.3 124.7,-173.3 124.7,-173.3 121.6,-173.3 118.5,-170.2 118.5,-167.1 118.5,-167.1 118.5,-160.9 118.5,-160.9 118.5,-157.8 121.6,-154.7 124.7,-154.7 124.7,-154.7 181.3,-154.7 181.3,-154.7 184.4,-154.7 187.5,-157.8 187.5,-160.9 187.5,-160.9 187.5,-167.1 187.5,-167.1 187.5,-170.2 184.4,-173.3 181.3,-173.3"/>
<text text-anchor="middle" x="153" y="-161.3" font-family="Helvetica,sans-Serif" font-size="9.00">input&#45;items.js</text>
</a>
</g>
</g>
<!-- client/src/init/index.js&#45;&gt;client/src/listeners/input&#45;items.js -->
<g id="edge16" class="edge">
<title>client/src/init/index.js&#45;&gt;client/src/listeners/input&#45;items.js</title>
<path fill="none" stroke="#000000" stroke-width="2" stroke-opacity="0.200000" d="M86.12,-164C94.23,-164 103.37,-164 112.2,-164"/>
<polygon fill="#000000" fill-opacity="0.200000" stroke="#000000" stroke-width="2" stroke-opacity="0.200000" points="112.24,-166.1 118.24,-164 112.24,-161.9 112.24,-166.1"/>
</g>
<!-- client/src/listeners/remove&#45;list.js -->
<g id="node14" class="node">
<title>client/src/listeners/remove&#45;list.js</title>
<g id="a_node14"><a xlink:href="../client/src/listeners/remove-list.js" xlink:title="remove&#45;list.js">
<path fill="#ffffcc" stroke="black" d="M181.29,-204.3C181.29,-204.3 124.71,-204.3 124.71,-204.3 121.61,-204.3 118.51,-201.2 118.51,-198.1 118.51,-198.1 118.51,-191.9 118.51,-191.9 118.51,-188.8 121.61,-185.7 124.71,-185.7 124.71,-185.7 181.29,-185.7 181.29,-185.7 184.39,-185.7 187.49,-188.8 187.49,-191.9 187.49,-191.9 187.49,-198.1 187.49,-198.1 187.49,-201.2 184.39,-204.3 181.29,-204.3"/>
<text text-anchor="middle" x="153" y="-192.3" font-family="Helvetica,sans-Serif" font-size="9.00">remove&#45;list.js</text>
</a>
</g>
</g>
<!-- client/src/init/index.js&#45;&gt;client/src/listeners/remove&#45;list.js -->
<g id="edge17" class="edge">
<title>client/src/init/index.js&#45;&gt;client/src/listeners/remove&#45;list.js</title>
<path fill="none" stroke="#000000" stroke-width="2" stroke-opacity="0.200000" d="M85.72,-173.34C91.09,-175.24 96.72,-177.21 102,-179 106.72,-180.6 111.7,-182.24 116.61,-183.84"/>
<polygon fill="#000000" fill-opacity="0.200000" stroke="#000000" stroke-width="2" stroke-opacity="0.200000" points="115.98,-185.84 122.34,-185.69 117.27,-181.84 115.98,-185.84"/>
</g>
<!-- client/src/listeners/sort&#45;list.js -->
<g id="node15" class="node">
<title>client/src/listeners/sort&#45;list.js</title>
<g id="a_node15"><a xlink:href="../client/src/listeners/sort-list.js" xlink:title="sort&#45;list.js">
<path fill="#ffffcc" stroke="black" d="M173.8,-235.3C173.8,-235.3 132.2,-235.3 132.2,-235.3 129.1,-235.3 126,-232.2 126,-229.1 126,-229.1 126,-222.9 126,-222.9 126,-219.8 129.1,-216.7 132.2,-216.7 132.2,-216.7 173.8,-216.7 173.8,-216.7 176.9,-216.7 180,-219.8 180,-222.9 180,-222.9 180,-229.1 180,-229.1 180,-232.2 176.9,-235.3 173.8,-235.3"/>
<text text-anchor="middle" x="153" y="-223.3" font-family="Helvetica,sans-Serif" font-size="9.00">sort&#45;list.js</text>
</a>
</g>
</g>
<!-- client/src/init/index.js&#45;&gt;client/src/listeners/sort&#45;list.js -->
<g id="edge18" class="edge">
<title>client/src/init/index.js&#45;&gt;client/src/listeners/sort&#45;list.js</title>
<path fill="none" stroke="#000000" stroke-width="2" stroke-opacity="0.200000" d="M66.32,-173.47C73.72,-183.84 86.89,-200.31 102,-210 107.52,-213.54 113.89,-216.36 120.19,-218.57"/>
<polygon fill="#000000" fill-opacity="0.200000" stroke="#000000" stroke-width="2" stroke-opacity="0.200000" points="119.58,-220.58 125.94,-220.44 120.88,-216.59 119.58,-220.58"/>
</g>
<!-- client/src/listeners/edit&#45;description.js&#45;&gt;client/src/handlers/edit&#45;description.js -->
<g id="edge19" class="edge">
<title>client/src/listeners/edit&#45;description.js&#45;&gt;client/src/handlers/edit&#45;description.js</title>
<path fill="none" stroke="#000000" stroke-width="2" stroke-opacity="0.200000" d="M196.07,-102C201.81,-102 207.74,-102 213.59,-102"/>
<polygon fill="#000000" fill-opacity="0.200000" stroke="#000000" stroke-width="2" stroke-opacity="0.200000" points="213.88,-104.1 219.88,-102 213.88,-99.9 213.88,-104.1"/>
</g>
<!-- client/src/listeners/edit&#45;description.js&#45;&gt;client/src/handlers/new&#45;description.js -->
<g id="edge20" class="edge">
<title>client/src/listeners/edit&#45;description.js&#45;&gt;client/src/handlers/new&#45;description.js</title>
<path fill="none" stroke="#000000" stroke-width="2" stroke-opacity="0.200000" d="M184.12,-92.67C193.01,-90.34 202.82,-88.17 212.01,-87 253.45,-81.73 264.59,-81.55 306.01,-87 312.81,-87.89 319.96,-89.38 326.79,-91.07"/>
<polygon fill="#000000" fill-opacity="0.200000" stroke="#000000" stroke-width="2" stroke-opacity="0.200000" points="326.61,-93.19 332.95,-92.67 327.67,-89.13 326.61,-93.19"/>
</g>
<!-- client/src/listeners/help&#45;section.js&#45;&gt;client/src/handlers/help&#45;section.js -->
<g id="edge21" class="edge">
<title>client/src/listeners/help&#45;section.js&#45;&gt;client/src/handlers/help&#45;section.js</title>
<path fill="none" stroke="#000000" stroke-width="2" stroke-opacity="0.200000" d="M189.67,-133C199.44,-133 210.12,-133 220.2,-133"/>
<polygon fill="#000000" fill-opacity="0.200000" stroke="#000000" stroke-width="2" stroke-opacity="0.200000" points="220.38,-135.1 226.38,-133 220.38,-130.9 220.38,-135.1"/>
</g>
<!-- client/src/listeners/input&#45;items.js&#45;&gt;client/src/handlers/input&#45;items.js -->
<g id="edge22" class="edge">
<title>client/src/listeners/input&#45;items.js&#45;&gt;client/src/handlers/input&#45;items.js</title>
<path fill="none" stroke="#000000" stroke-width="2" stroke-opacity="0.200000" d="M187.58,-164C198.56,-164 210.85,-164 222.23,-164"/>
<polygon fill="#000000" fill-opacity="0.200000" stroke="#000000" stroke-width="2" stroke-opacity="0.200000" points="222.45,-166.1 228.45,-164 222.45,-161.9 222.45,-166.1"/>
</g>
<!-- client/src/listeners/remove&#45;list.js&#45;&gt;client/src/handlers/remove&#45;item.js -->
<g id="edge23" class="edge">
<title>client/src/listeners/remove&#45;list.js&#45;&gt;client/src/handlers/remove&#45;item.js</title>
<path fill="none" stroke="#000000" stroke-width="2" stroke-opacity="0.200000" d="M187.58,-195C197.63,-195 208.77,-195 219.32,-195"/>
<polygon fill="#000000" fill-opacity="0.200000" stroke="#000000" stroke-width="2" stroke-opacity="0.200000" points="219.45,-197.1 225.44,-195 219.44,-192.9 219.45,-197.1"/>
</g>
<!-- client/src/listeners/sort&#45;list.js&#45;&gt;client/src/handlers/sort&#45;list.js -->
<g id="edge24" class="edge">
<title>client/src/listeners/sort&#45;list.js&#45;&gt;client/src/handlers/sort&#45;list.js</title>
<path fill="none" stroke="#000000" stroke-width="2" stroke-opacity="0.200000" d="M180.15,-226C195.03,-226 213.8,-226 229.61,-226"/>
<polygon fill="#000000" fill-opacity="0.200000" stroke="#000000" stroke-width="2" stroke-opacity="0.200000" points="229.73,-228.1 235.73,-226 229.73,-223.9 229.73,-228.1"/>
</g>
<!-- client/src/logic/array&#45;list.js -->
<g id="node16" class="node">
<title>client/src/logic/array&#45;list.js</title>
<g id="a_node16"><a xlink:href="../client/src/logic/array-list.js" xlink:title="array&#45;list.js">
<path fill="#ccffcc" stroke="black" d="M386.8,-296.3C386.8,-296.3 339.22,-296.3 339.22,-296.3 336.12,-296.3 333.02,-293.2 333.02,-290.1 333.02,-290.1 333.02,-283.9 333.02,-283.9 333.02,-280.8 336.12,-277.7 339.22,-277.7 339.22,-277.7 386.8,-277.7 386.8,-277.7 389.9,-277.7 393,-280.8 393,-283.9 393,-283.9 393,-290.1 393,-290.1 393,-293.2 389.9,-296.3 386.8,-296.3"/>
<text text-anchor="middle" x="363.01" y="-284.3" font-family="Helvetica,sans-Serif" font-size="9.00">array&#45;list.js</text>
</a>
</g>
</g>
</g>
</svg>
